<svg version="1.1" viewBox="0.0 0.0 1032.0 371.0" fill="none" stroke="none" stroke-linecap="square" stroke-miterlimit="10" width="1032" height="371" xmlns:xlink="http://www.w3.org/1999/xlink" xmlns="http://www.w3.org/2000/svg"><path fill="#ffffff" d="M0 0L1032.0 0L1032.0 371.0L0 371.0L0 0Z" fill-rule="nonzero"/><path stroke="#cccccc" stroke-width="1.0" stroke-linecap="butt" d="M239.5 88.5L239.5 300.5" fill-rule="nonzero"/><path stroke="#cccccc" stroke-width="1.0" stroke-linecap="butt" d="M432.5 88.5L432.5 300.5" fill-rule="nonzero"/><path stroke="#cccccc" stroke-width="1.0" stroke-linecap="butt" d="M626.5 88.5L626.5 300.5" fill-rule="nonzero"/><path stroke="#cccccc" stroke-width="1.0" stroke-linecap="butt" d="M819.5 88.5L819.5 300.5" fill-rule="nonzero"/><path stroke="#cccccc" stroke-width="1.0" stroke-linecap="butt" d="M1013.5 88.5L1013.5 300.5" fill-rule="nonzero"/><path stroke="#333333" stroke-width="1.0" stroke-linecap="butt" d="M45.5 300.5L1013.5 300.5" fill-rule="nonzero"/><path stroke="#cccccc" stroke-width="1.0" stroke-linecap="butt" d="M45.5 247.5L1013.5 247.5" fill-rule="nonzero"/><path stroke="#cccccc" stroke-width="1.0" stroke-linecap="butt" d="M45.5 194.5L1013.5 194.5" fill-rule="nonzero"/><path stroke="#cccccc" stroke-width="1.0" stroke-linecap="butt" d="M45.5 141.5L1013.5 141.5" fill-rule="nonzero"/><path stroke="#cccccc" stroke-width="1.0" stroke-linecap="butt" d="M45.5 88.5L1013.5 88.5" fill-rule="nonzero"/><clipPath id="id_0"><path d="M45.55 88.28333L1013.45 88.28333L1013.45 300.45L45.55 300.45L45.55 88.28333Z" clip-rule="nonzero"/></clipPath><path stroke="#4285f4" stroke-width="2.0" stroke-linecap="butt" clip-path="url(#id_0)" d="M46.421196 300.25906L55.133167 298.85876L142.25288 284.59055L1013.45 141.16588" fill-rule="nonzero"/><path stroke="#ea4335" stroke-width="2.0" stroke-linecap="butt" clip-path="url(#id_0)" d="M46.421196 300.45L55.133167 300.45L142.25288 300.45L1013.45 300.45" fill-rule="nonzero"/><path fill="#000000" fill-opacity="0.0" clip-path="url(#id_0)" d="M49.421196 300.25906C49.421196 301.9159 48.078053 303.25906 46.421196 303.25906C44.764343 303.25906 43.421196 301.9159 43.421196 300.25906C43.421196 298.6022 44.764343 297.25906 46.421196 297.25906C48.078053 297.25906 49.421196 298.6022 49.421196 300.25906Z" fill-rule="nonzero"/><path fill="#000000" fill-opacity="0.0" clip-path="url(#id_0)" d="M58.133167 298.85876C58.133167 300.5156 56.790024 301.85876 55.133167 301.85876C53.476315 301.85876 52.133167 300.5156 52.133167 298.85876C52.133167 297.2019 53.476315 295.85876 55.133167 295.85876C56.790024 295.85876 58.133167 297.2019 58.133167 298.85876Z" fill-rule="nonzero"/><path fill="#000000" fill-opacity="0.0" clip-path="url(#id_0)" d="M145.25288 284.59055C145.25288 286.2474 143.90973 287.59055 142.25288 287.59055C140.59602 287.59055 139.25288 286.2474 139.25288 284.59055C139.25288 282.9337 140.59602 281.59055 142.25288 281.59055C143.90973 281.59055 145.25288 282.9337 145.25288 284.59055Z" fill-rule="nonzero"/><path fill="#000000" fill-opacity="0.0" clip-path="url(#id_0)" d="M1016.45 141.16588C1016.45 142.82272 1015.1069 144.16588 1013.45 144.16588C1011.79315 144.16588 1010.45 142.82272 1010.45 141.16588C1010.45 139.50902 1011.79315 138.16588 1013.45 138.16588C1015.1069 138.16588 1016.45 139.50902 1016.45 141.16588Z" fill-rule="nonzero"/><path fill="#000000" fill-opacity="0.0" clip-path="url(#id_0)" d="M49.421196 300.45C49.421196 302.10684 48.078053 303.45 46.421196 303.45C44.764343 303.45 43.421196 302.10684 43.421196 300.45C43.421196 298.79315 44.764343 297.45 46.421196 297.45C48.078053 297.45 49.421196 298.79315 49.421196 300.45Z" fill-rule="nonzero"/><path fill="#000000" fill-opacity="0.0" clip-path="url(#id_0)" d="M58.133167 300.45C58.133167 302.10684 56.790024 303.45 55.133167 303.45C53.476315 303.45 52.133167 302.10684 52.133167 300.45C52.133167 298.79315 53.476315 297.45 55.133167 297.45C56.790024 297.45 58.133167 298.79315 58.133167 300.45Z" fill-rule="nonzero"/><path fill="#000000" fill-opacity="0.0" clip-path="url(#id_0)" d="M145.25288 300.45C145.25288 302.10684 143.90973 303.45 142.25288 303.45C140.59602 303.45 139.25288 302.10684 139.25288 300.45C139.25288 298.79315 140.59602 297.45 142.25288 297.45C143.90973 297.45 145.25288 298.79315 145.25288 300.45Z" fill-rule="nonzero"/><path fill="#000000" fill-opacity="0.0" clip-path="url(#id_0)" d="M1016.45 300.45C1016.45 302.10684 1015.1069 303.45 1013.45 303.45C1011.79315 303.45 1010.45 302.10684 1010.45 300.45C1010.45 298.79315 1011.79315 297.45 1013.45 297.45C1015.1069 297.45 1016.45 298.79315 1016.45 300.45Z" fill-rule="nonzero"/><path fill="#000000" d="M526.7969 349.45L526.7969 343.23126L527.7344 343.23126L527.7344 344.10626Q528.4219 343.09064 529.71875 343.09064Q530.28125 343.09064 530.75 343.29376Q531.2344 343.4969 531.46875 343.825Q531.7031 344.15314 531.7969 344.59064Q531.84375 344.8875 531.84375 345.6219L531.84375 349.45L530.7969 349.45L530.7969 345.66876Q530.7969 345.0125 530.6719 344.7Q530.5469 344.3875 530.2344 344.2Q529.9219 343.9969 529.5 343.9969Q528.8281 343.9969 528.3281 344.4344Q527.84375 344.85626 527.84375 346.04376L527.84375 349.45L526.7969 349.45Z" fill-rule="nonzero"/><path fill="#000000" d="M33.05 300.21564Q33.05 298.6844 33.3625 297.7625Q33.675 296.825 34.284374 296.325Q34.909374 295.825 35.846874 295.825Q36.534374 295.825 37.05 296.10626Q37.58125 296.3875 37.925 296.91876Q38.26875 297.4344 38.45625 298.1844Q38.64375 298.9344 38.64375 300.21564Q38.64375 301.73126 38.33125 302.65314Q38.034374 303.575 37.409374 304.09064Q36.8 304.59064 35.846874 304.59064Q34.6125 304.59064 33.89375 303.7Q33.05 302.6375 33.05 300.21564ZM34.128124 300.21564Q34.128124 302.325 34.628124 303.02814Q35.128124 303.73126 35.846874 303.73126Q36.58125 303.73126 37.065624 303.02814Q37.565624 302.325 37.565624 300.21564Q37.565624 298.09064 37.065624 297.40314Q36.58125 296.7 35.83125 296.7Q35.1125 296.7 34.675 297.3094Q34.128124 298.09064 34.128124 300.21564Z" fill-rule="nonzero"/><path fill="#000000" d="M30.01875 251.40834L28.971874 251.40834L28.971874 244.68959Q28.58125 245.04897 27.95625 245.42397Q27.346874 245.78334 26.8625 245.95522L26.8625 244.93959Q27.7375 244.51772 28.39375 243.93959Q29.065624 243.34584 29.346874 242.78334L30.01875 242.78334L30.01875 251.40834ZM33.05 247.17397Q33.05 245.64272 33.3625 244.72084Q33.675 243.78334 34.284374 243.28334Q34.909374 242.78334 35.846874 242.78334Q36.534374 242.78334 37.05 243.06459Q37.58125 243.34584 37.925 243.87709Q38.26875 244.39272 38.45625 245.14272Q38.64375 245.89272 38.64375 247.17397Q38.64375 248.68959 38.33125 249.61147Q38.034374 250.53334 37.409374 251.04897Q36.8 251.54897 35.846874 251.54897Q34.6125 251.54897 33.89375 250.65834Q33.05 249.59584 33.05 247.17397ZM34.128124 247.17397Q34.128124 249.28334 34.628124 249.98647Q35.128124 250.68959 35.846874 250.68959Q36.58125 250.68959 37.065624 249.98647Q37.565624 249.28334 37.565624 247.17397Q37.565624 245.04897 37.065624 244.36147Q36.58125 243.65834 35.83125 243.65834Q35.1125 243.65834 34.675 244.26772Q34.128124 245.04897 34.128124 247.17397Z" fill-rule="nonzero"/><path fill="#000000" d="M31.596874 197.35104L31.596874 198.36667L25.909374 198.36667Q25.909374 197.99167 26.034374 197.6323Q26.253124 197.05417 26.721874 196.49167Q27.20625 195.92917 28.1125 195.1948Q29.51875 194.03854 30.003124 193.36667Q30.503124 192.6948 30.503124 192.10104Q30.503124 191.47604 30.05 191.05417Q29.596874 190.61667 28.878124 190.61667Q28.1125 190.61667 27.659374 191.0698Q27.20625 191.52292 27.190624 192.33542L26.1125 192.22604Q26.221874 191.0073 26.940624 190.3823Q27.675 189.74167 28.909374 189.74167Q30.14375 189.74167 30.8625 190.42917Q31.58125 191.11667 31.58125 192.1323Q31.58125 192.64792 31.3625 193.14792Q31.159374 193.6323 30.659374 194.1948Q30.175 194.74167 29.05 195.6948Q28.096874 196.49167 27.815624 196.78854Q27.55 197.0698 27.378124 197.35104L31.596874 197.35104ZM33.05 194.1323Q33.05 192.60104 33.3625 191.67917Q33.675 190.74167 34.284374 190.24167Q34.909374 189.74167 35.846874 189.74167Q36.534374 189.74167 37.05 190.02292Q37.58125 190.30417 37.925 190.83542Q38.26875 191.35104 38.45625 192.10104Q38.64375 192.85104 38.64375 194.1323Q38.64375 195.64792 38.33125 196.5698Q38.034374 197.49167 37.409374 198.0073Q36.8 198.5073 35.846874 198.5073Q34.6125 198.5073 33.89375 197.61667Q33.05 196.55417 33.05 194.1323ZM34.128124 194.1323Q34.128124 196.24167 34.628124 196.9448Q35.128124 197.64792 35.846874 197.64792Q36.58125 197.64792 37.065624 196.9448Q37.565624 196.24167 37.565624 194.1323Q37.565624 192.0073 37.065624 191.3198Q36.58125 190.61667 35.83125 190.61667Q35.1125 190.61667 34.675 191.22604Q34.128124 192.0073 34.128124 194.1323Z" fill-rule="nonzero"/><path fill="#000000" d="M26.05 143.05937L27.1125 142.91875Q27.284374 143.80937 27.721874 144.21562Q28.159374 144.60625 28.784374 144.60625Q29.534374 144.60625 30.05 144.09062Q30.565624 143.575 30.565624 142.80937Q30.565624 142.09062 30.08125 141.62187Q29.6125 141.1375 28.878124 141.1375Q28.58125 141.1375 28.128124 141.2625L28.253124 140.325Q28.3625 140.34062 28.425 140.34062Q29.096874 140.34062 29.628124 139.99687Q30.175 139.6375 30.175 138.90312Q30.175 138.325 29.784374 137.95Q29.39375 137.55937 28.76875 137.55937Q28.159374 137.55937 27.7375 137.95Q27.33125 138.34062 27.221874 139.10625L26.159374 138.91875Q26.346874 137.87187 27.034374 137.29375Q27.721874 136.7 28.7375 136.7Q29.440624 136.7 30.034374 137.0125Q30.628124 137.30937 30.940624 137.825Q31.253124 138.34062 31.253124 138.93437Q31.253124 139.48125 30.95625 139.95Q30.659374 140.40312 30.08125 140.66875Q30.83125 140.84062 31.253124 141.40312Q31.675 141.95 31.675 142.79375Q31.675 143.91875 30.846874 144.7Q30.034374 145.48125 28.784374 145.48125Q27.659374 145.48125 26.909374 144.80937Q26.159374 144.12187 26.05 143.05937ZM33.05 141.09062Q33.05 139.55937 33.3625 138.6375Q33.675 137.7 34.284374 137.2Q34.909374 136.7 35.846874 136.7Q36.534374 136.7 37.05 136.98125Q37.58125 137.2625 37.925 137.79375Q38.26875 138.30937 38.45625 139.05937Q38.64375 139.80937 38.64375 141.09062Q38.64375 142.60625 38.33125 143.52812Q38.034374 144.45 37.409374 144.96562Q36.8 145.46562 35.846874 145.46562Q34.6125 145.46562 33.89375 144.575Q33.05 143.5125 33.05 141.09062ZM34.128124 141.09062Q34.128124 143.2 34.628124 143.90312Q35.128124 144.60625 35.846874 144.60625Q36.58125 144.60625 37.065624 143.90312Q37.565624 143.2 37.565624 141.09062Q37.565624 138.96562 37.065624 138.27812Q36.58125 137.575 35.83125 137.575Q35.1125 137.575 34.675 138.18437Q34.128124 138.96562 34.128124 141.09062Z" fill-rule="nonzero"/><path fill="#000000" d="M29.425 92.28333L29.425 90.22083L25.70625 90.22083L25.70625 89.25208L29.628124 83.68958L30.4875 83.68958L30.4875 89.25208L31.64375 89.25208L31.64375 90.22083L30.4875 90.22083L30.4875 92.28333L29.425 92.28333ZM29.425 89.25208L29.425 85.39271L26.7375 89.25208L29.425 89.25208ZM33.05 88.04896Q33.05 86.51771 33.3625 85.59583Q33.675 84.65833 34.284374 84.15833Q34.909374 83.65833 35.846874 83.65833Q36.534374 83.65833 37.05 83.93958Q37.58125 84.22083 37.925 84.75208Q38.26875 85.26771 38.45625 86.01771Q38.64375 86.76771 38.64375 88.04896Q38.64375 89.56458 38.33125 90.48646Q38.034374 91.40833 37.409374 91.92396Q36.8 92.42396 35.846874 92.42396Q34.6125 92.42396 33.89375 91.53333Q33.05 90.47083 33.05 88.04896ZM34.128124 88.04896Q34.128124 90.15833 34.628124 90.86146Q35.128124 91.56458 35.846874 91.56458Q36.58125 91.56458 37.065624 90.86146Q37.565624 90.15833 37.565624 88.04896Q37.565624 85.92396 37.065624 85.23646Q36.58125 84.53333 35.83125 84.53333Q35.1125 84.53333 34.675 85.14271Q34.128124 85.92396 34.128124 88.04896Z" fill-rule="nonzero"/><path fill="#000000" d="M213.59944 316.4344L213.59944 317.45L207.91194 317.45Q207.91194 317.075 208.03694 316.71564Q208.25569 316.1375 208.72444 315.575Q209.20882 315.0125 210.11507 314.27814Q211.52132 313.1219 212.00569 312.45Q212.50569 311.77814 212.50569 311.1844Q212.50569 310.5594 212.05257 310.1375Q211.59944 309.7 210.88069 309.7Q210.11507 309.7 209.66194 310.15314Q209.20882 310.60626 209.19319 311.41876L208.11507 311.3094Q208.22444 310.09064 208.94319 309.46564Q209.67757 308.825 210.91194 308.825Q212.14632 308.825 212.86507 309.5125Q213.58382 310.2 213.58382 311.21564Q213.58382 311.73126 213.36507 312.23126Q213.16194 312.71564 212.66194 313.27814Q212.17757 313.825 211.05257 314.77814Q210.09944 315.575 209.81819 315.8719Q209.55257 316.15314 209.38069 316.4344L213.59944 316.4344ZM215.05257 313.21564Q215.05257 311.6844 215.36507 310.7625Q215.67757 309.825 216.28694 309.325Q216.91194 308.825 217.84944 308.825Q218.53694 308.825 219.05257 309.10626Q219.58382 309.3875 219.92757 309.91876Q220.27132 310.4344 220.45882 311.1844Q220.64632 311.9344 220.64632 313.21564Q220.64632 314.73126 220.33382 315.65314Q220.03694 316.575 219.41194 317.09064Q218.80257 317.59064 217.84944 317.59064Q216.61507 317.59064 215.89632 316.7Q215.05257 315.6375 215.05257 313.21564ZM216.13069 313.21564Q216.13069 315.325 216.63069 316.02814Q217.13069 316.73126 217.84944 316.73126Q218.58382 316.73126 219.06819 316.02814Q219.56819 315.325 219.56819 313.21564Q219.56819 311.09064 219.06819 310.40314Q218.58382 309.7 217.83382 309.7Q217.11507 309.7 216.67757 310.3094Q216.13069 311.09064 216.13069 313.21564ZM222.05257 313.21564Q222.05257 311.6844 222.36507 310.7625Q222.67757 309.825 223.28694 309.325Q223.91194 308.825 224.84944 308.825Q225.53694 308.825 226.05257 309.10626Q226.58382 309.3875 226.92757 309.91876Q227.27132 310.4344 227.45882 311.1844Q227.64632 311.9344 227.64632 313.21564Q227.64632 314.73126 227.33382 315.65314Q227.03694 316.575 226.41194 317.09064Q225.80257 317.59064 224.84944 317.59064Q223.61507 317.59064 222.89632 316.7Q222.05257 315.6375 222.05257 313.21564ZM223.13069 313.21564Q223.13069 315.325 223.63069 316.02814Q224.13069 316.73126 224.84944 316.73126Q225.58382 316.73126 226.06819 316.02814Q226.56819 315.325 226.56819 313.21564Q226.56819 311.09064 226.06819 310.40314Q225.58382 309.7 224.83382 309.7Q224.11507 309.7 223.67757 310.3094Q223.13069 311.09064 223.13069 313.21564ZM229.05257 313.21564Q229.05257 311.6844 229.36507 310.7625Q229.67757 309.825 230.28694 309.325Q230.91194 308.825 231.84944 308.825Q232.53694 308.825 233.05257 309.10626Q233.58382 309.3875 233.92757 309.91876Q234.27132 310.4344 234.45882 311.1844Q234.64632 311.9344 234.64632 313.21564Q234.64632 314.73126 234.33382 315.65314Q234.03694 316.575 233.41194 317.09064Q232.80257 317.59064 231.84944 317.59064Q230.61507 317.59064 229.89632 316.7Q229.05257 315.6375 229.05257 313.21564ZM230.13069 313.21564Q230.13069 315.325 230.63069 316.02814Q231.13069 316.73126 231.84944 316.73126Q232.58382 316.73126 233.06819 316.02814Q233.56819 315.325 233.56819 313.21564Q233.56819 311.09064 233.06819 310.40314Q232.58382 309.7 231.83382 309.7Q231.11507 309.7 230.67757 310.3094Q230.13069 311.09064 230.13069 313.21564ZM236.05257 313.21564Q236.05257 311.6844 236.36507 310.7625Q236.67757 309.825 237.28694 309.325Q237.91194 308.825 238.84944 308.825Q239.53694 308.825 240.05257 309.10626Q240.58382 309.3875 240.92757 309.91876Q241.27132 310.4344 241.45882 311.1844Q241.64632 311.9344 241.64632 313.21564Q241.64632 314.73126 241.33382 315.65314Q241.03694 316.575 240.41194 317.09064Q239.80257 317.59064 238.84944 317.59064Q237.61507 317.59064 236.89632 316.7Q236.05257 315.6375 236.05257 313.21564ZM237.13069 313.21564Q237.13069 315.325 237.63069 316.02814Q238.13069 316.73126 238.84944 316.73126Q239.58382 316.73126 240.06819 316.02814Q240.56819 315.325 240.56819 313.21564Q240.56819 311.09064 240.06819 310.40314Q239.58382 309.7 238.83382 309.7Q238.11507 309.7 237.67757 310.3094Q237.13069 311.09064 237.13069 313.21564ZM243.05257 313.21564Q243.05257 311.6844 243.36507 310.7625Q243.67757 309.825 244.28694 309.325Q244.91194 308.825 245.84944 308.825Q246.53694 308.825 247.05257 309.10626Q247.58382 309.3875 247.92757 309.91876Q248.27132 310.4344 248.45882 311.1844Q248.64632 311.9344 248.64632 313.21564Q248.64632 314.73126 248.33382 315.65314Q248.03694 316.575 247.41194 317.09064Q246.80257 317.59064 245.84944 317.59064Q244.61507 317.59064 243.89632 316.7Q243.05257 315.6375 243.05257 313.21564ZM244.13069 313.21564Q244.13069 315.325 244.63069 316.02814Q245.13069 316.73126 245.84944 316.73126Q246.58382 316.73126 247.06819 316.02814Q247.56819 315.325 247.56819 313.21564Q247.56819 311.09064 247.06819 310.40314Q246.58382 309.7 245.83382 309.7Q245.11507 309.7 244.67757 310.3094Q244.13069 311.09064 244.13069 313.21564ZM250.05257 313.21564Q250.05257 311.6844 250.36507 310.7625Q250.67757 309.825 251.28694 309.325Q251.91194 308.825 252.84944 308.825Q253.53694 308.825 254.05257 309.10626Q254.58382 309.3875 254.92757 309.91876Q255.27132 310.4344 255.45882 311.1844Q255.64632 311.9344 255.64632 313.21564Q255.64632 314.73126 255.33382 315.65314Q255.03694 316.575 254.41194 317.09064Q253.80257 317.59064 252.84944 317.59064Q251.61507 317.59064 250.89632 316.7Q250.05257 315.6375 250.05257 313.21564ZM251.13069 313.21564Q251.13069 315.325 251.63069 316.02814Q252.13069 316.73126 252.84944 316.73126Q253.58382 316.73126 254.06819 316.02814Q254.56819 315.325 254.56819 313.21564Q254.56819 311.09064 254.06819 310.40314Q253.58382 309.7 252.83382 309.7Q252.11507 309.7 251.67757 310.3094Q251.13069 311.09064 251.13069 313.21564ZM257.05255 313.21564Q257.05255 311.6844 257.36505 310.7625Q257.67755 309.825 258.28693 309.325Q258.91193 308.825 259.84943 308.825Q260.53693 308.825 261.05255 309.10626Q261.5838 309.3875 261.92755 309.91876Q262.2713 310.4344 262.4588 311.1844Q262.6463 311.9344 262.6463 313.21564Q262.6463 314.73126 262.3338 315.65314Q262.03693 316.575 261.41193 317.09064Q260.80255 317.59064 259.84943 317.59064Q258.61505 317.59064 257.8963 316.7Q257.05255 315.6375 257.05255 313.21564ZM258.13068 313.21564Q258.13068 315.325 258.63068 316.02814Q259.13068 316.73126 259.84943 316.73126Q260.5838 316.73126 261.06818 316.02814Q261.56818 315.325 261.56818 313.21564Q261.56818 311.09064 261.06818 310.40314Q260.5838 309.7 259.8338 309.7Q259.11505 309.7 258.67755 310.3094Q258.13068 311.09064 258.13068 313.21564ZM264.05255 313.21564Q264.05255 311.6844 264.36505 310.7625Q264.67755 309.825 265.28693 309.325Q265.91193 308.825 266.84943 308.825Q267.53693 308.825 268.05255 309.10626Q268.5838 309.3875 268.92755 309.91876Q269.2713 310.4344 269.4588 311.1844Q269.6463 311.9344 269.6463 313.21564Q269.6463 314.73126 269.3338 315.65314Q269.03693 316.575 268.41193 317.09064Q267.80255 317.59064 266.84943 317.59064Q265.61505 317.59064 264.8963 316.7Q264.05255 315.6375 264.05255 313.21564ZM265.13068 313.21564Q265.13068 315.325 265.63068 316.02814Q266.13068 316.73126 266.84943 316.73126Q267.5838 316.73126 268.06818 316.02814Q268.56818 315.325 268.56818 313.21564Q268.56818 311.09064 268.06818 310.40314Q267.5838 309.7 266.8338 309.7Q266.11505 309.7 265.67755 310.3094Q265.13068 311.09064 265.13068 313.21564Z" fill-rule="nonzero"/><path fill="#000000" d="M405.02692 317.45L405.02692 315.3875L401.30817 315.3875L401.30817 314.41876L405.23004 308.85626L406.08942 308.85626L406.08942 314.41876L407.24567 314.41876L407.24567 315.3875L406.08942 315.3875L406.08942 317.45L405.02692 317.45ZM405.02692 314.41876L405.02692 310.5594L402.33942 314.41876L405.02692 314.41876ZM408.65192 313.21564Q408.65192 311.6844 408.96442 310.7625Q409.27692 309.825 409.8863 309.325Q410.5113 308.825 411.4488 308.825Q412.1363 308.825 412.65192 309.10626Q413.18317 309.3875 413.52692 309.91876Q413.87067 310.4344 414.05817 311.1844Q414.24567 311.9344 414.24567 313.21564Q414.24567 314.73126 413.93317 315.65314Q413.6363 316.575 413.0113 317.09064Q412.40192 317.59064 411.4488 317.59064Q410.21442 317.59064 409.49567 316.7Q408.65192 315.6375 408.65192 313.21564ZM409.73004 313.21564Q409.73004 315.325 410.23004 316.02814Q410.73004 316.73126 411.4488 316.73126Q412.18317 316.73126 412.66754 316.02814Q413.16754 315.325 413.16754 313.21564Q413.16754 311.09064 412.66754 310.40314Q412.18317 309.7 411.43317 309.7Q410.71442 309.7 410.27692 310.3094Q409.73004 311.09064 409.73004 313.21564ZM415.65192 313.21564Q415.65192 311.6844 415.96442 310.7625Q416.27692 309.825 416.8863 309.325Q417.5113 308.825 418.4488 308.825Q419.1363 308.825 419.65192 309.10626Q420.18317 309.3875 420.52692 309.91876Q420.87067 310.4344 421.05817 311.1844Q421.24567 311.9344 421.24567 313.21564Q421.24567 314.73126 420.93317 315.65314Q420.6363 316.575 420.0113 317.09064Q419.40192 317.59064 418.4488 317.59064Q417.21442 317.59064 416.49567 316.7Q415.65192 315.6375 415.65192 313.21564ZM416.73004 313.21564Q416.73004 315.325 417.23004 316.02814Q417.73004 316.73126 418.4488 316.73126Q419.18317 316.73126 419.66754 316.02814Q420.16754 315.325 420.16754 313.21564Q420.16754 311.09064 419.66754 310.40314Q419.18317 309.7 418.43317 309.7Q417.71442 309.7 417.27692 310.3094Q416.73004 311.09064 416.73004 313.21564ZM422.65192 313.21564Q422.65192 311.6844 422.96442 310.7625Q423.27692 309.825 423.8863 309.325Q424.5113 308.825 425.4488 308.825Q426.1363 308.825 426.65192 309.10626Q427.18317 309.3875 427.52692 309.91876Q427.87067 310.4344 428.05817 311.1844Q428.24567 311.9344 428.24567 313.21564Q428.24567 314.73126 427.93317 315.65314Q427.6363 316.575 427.0113 317.09064Q426.40192 317.59064 425.4488 317.59064Q424.21442 317.59064 423.49567 316.7Q422.65192 315.6375 422.65192 313.21564ZM423.73004 313.21564Q423.73004 315.325 424.23004 316.02814Q424.73004 316.73126 425.4488 316.73126Q426.18317 316.73126 426.66754 316.02814Q427.16754 315.325 427.16754 313.21564Q427.16754 311.09064 426.66754 310.40314Q426.18317 309.7 425.43317 309.7Q424.71442 309.7 424.27692 310.3094Q423.73004 311.09064 423.73004 313.21564ZM429.65192 313.21564Q429.65192 311.6844 429.96442 310.7625Q430.27692 309.825 430.8863 309.325Q431.5113 308.825 432.4488 308.825Q433.1363 308.825 433.65192 309.10626Q434.18317 309.3875 434.52692 309.91876Q434.87067 310.4344 435.05817 311.1844Q435.24567 311.9344 435.24567 313.21564Q435.24567 314.73126 434.93317 315.65314Q434.6363 316.575 434.0113 317.09064Q433.40192 317.59064 432.4488 317.59064Q431.21442 317.59064 430.49567 316.7Q429.65192 315.6375 429.65192 313.21564ZM430.73004 313.21564Q430.73004 315.325 431.23004 316.02814Q431.73004 316.73126 432.4488 316.73126Q433.18317 316.73126 433.66754 316.02814Q434.16754 315.325 434.16754 313.21564Q434.16754 311.09064 433.66754 310.40314Q433.18317 309.7 432.43317 309.7Q431.71442 309.7 431.27692 310.3094Q430.73004 311.09064 430.73004 313.21564ZM436.65192 313.21564Q436.65192 311.6844 436.96442 310.7625Q437.27692 309.825 437.8863 309.325Q438.5113 308.825 439.4488 308.825Q440.1363 308.825 440.65192 309.10626Q441.18317 309.3875 441.52692 309.91876Q441.87067 310.4344 442.05817 311.1844Q442.24567 311.9344 442.24567 313.21564Q442.24567 314.73126 441.93317 315.65314Q441.6363 316.575 441.0113 317.09064Q440.40192 317.59064 439.4488 317.59064Q438.21442 317.59064 437.49567 316.7Q436.65192 315.6375 436.65192 313.21564ZM437.73004 313.21564Q437.73004 315.325 438.23004 316.02814Q438.73004 316.73126 439.4488 316.73126Q440.18317 316.73126 440.66754 316.02814Q441.16754 315.325 441.16754 313.21564Q441.16754 311.09064 440.66754 310.40314Q440.18317 309.7 439.43317 309.7Q438.71442 309.7 438.27692 310.3094Q437.73004 311.09064 437.73004 313.21564ZM443.65192 313.21564Q443.65192 311.6844 443.96442 310.7625Q444.27692 309.825 444.8863 309.325Q445.5113 308.825 446.4488 308.825Q447.1363 308.825 447.65192 309.10626Q448.18317 309.3875 448.52692 309.91876Q448.87067 310.4344 449.05817 311.1844Q449.24567 311.9344 449.24567 313.21564Q449.24567 314.73126 448.93317 315.65314Q448.6363 316.575 448.0113 317.09064Q447.40192 317.59064 446.4488 317.59064Q445.21442 317.59064 444.49567 316.7Q443.65192 315.6375 443.65192 313.21564ZM444.73004 313.21564Q444.73004 315.325 445.23004 316.02814Q445.73004 316.73126 446.4488 316.73126Q447.18317 316.73126 447.66754 316.02814Q448.16754 315.325 448.16754 313.21564Q448.16754 311.09064 447.66754 310.40314Q447.18317 309.7 446.43317 309.7Q445.71442 309.7 445.27692 310.3094Q444.73004 311.09064 444.73004 313.21564ZM450.65192 313.21564Q450.65192 311.6844 450.96442 310.7625Q451.27692 309.825 451.8863 309.325Q452.5113 308.825 453.4488 308.825Q454.1363 308.825 454.65192 309.10626Q455.18317 309.3875 455.52692 309.91876Q455.87067 310.4344 456.05817 311.1844Q456.24567 311.9344 456.24567 313.21564Q456.24567 314.73126 455.93317 315.65314Q455.6363 316.575 455.0113 317.09064Q454.40192 317.59064 453.4488 317.59064Q452.21442 317.59064 451.49567 316.7Q450.65192 315.6375 450.65192 313.21564ZM451.73004 313.21564Q451.73004 315.325 452.23004 316.02814Q452.73004 316.73126 453.4488 316.73126Q454.18317 316.73126 454.66754 316.02814Q455.16754 315.325 455.16754 313.21564Q455.16754 311.09064 454.66754 310.40314Q454.18317 309.7 453.43317 309.7Q452.71442 309.7 452.27692 310.3094Q451.73004 311.09064 451.73004 313.21564ZM457.65192 313.21564Q457.65192 311.6844 457.96442 310.7625Q458.27692 309.825 458.8863 309.325Q459.5113 308.825 460.4488 308.825Q461.1363 308.825 461.65192 309.10626Q462.18317 309.3875 462.52692 309.91876Q462.87067 310.4344 463.05817 311.1844Q463.24567 311.9344 463.24567 313.21564Q463.24567 314.73126 462.93317 315.65314Q462.6363 316.575 462.0113 317.09064Q461.40192 317.59064 460.4488 317.59064Q459.21442 317.59064 458.49567 316.7Q457.65192 315.6375 457.65192 313.21564ZM458.73004 313.21564Q458.73004 315.325 459.23004 316.02814Q459.73004 316.73126 460.4488 316.73126Q461.18317 316.73126 461.66754 316.02814Q462.16754 315.325 462.16754 313.21564Q462.16754 311.09064 461.66754 310.40314Q461.18317 309.7 460.43317 309.7Q459.71442 309.7 459.27692 310.3094Q458.73004 311.09064 458.73004 313.21564Z" fill-rule="nonzero"/><path fill="#000000" d="M600.72003 310.96564L599.67316 311.04376Q599.53253 310.41876 599.28253 310.1375Q598.84503 309.6844 598.22003 309.6844Q597.72003 309.6844 597.3294 309.96564Q596.84503 310.34064 596.54816 311.04376Q596.2669 311.73126 596.2513 313.0125Q596.6263 312.4344 597.17316 312.15314Q597.73566 311.8719 598.34503 311.8719Q599.3919 311.8719 600.1263 312.65314Q600.8763 313.4344 600.8763 314.65314Q600.8763 315.46564 600.5169 316.16876Q600.17316 316.85626 599.5638 317.23126Q598.9544 317.59064 598.1888 317.59064Q596.86066 317.59064 596.03253 316.6219Q595.2044 315.65314 595.2044 313.4344Q595.2044 310.9344 596.1263 309.8094Q596.92316 308.825 598.28253 308.825Q599.29816 308.825 599.9388 309.40314Q600.59503 309.96564 600.72003 310.96564ZM596.42316 314.66876Q596.42316 315.21564 596.6419 315.71564Q596.8763 316.2 597.28253 316.46564Q597.7044 316.73126 598.17316 316.73126Q598.8294 316.73126 599.3138 316.2Q599.79816 315.65314 599.79816 314.73126Q599.79816 313.84064 599.3138 313.325Q598.84503 312.8094 598.1263 312.8094Q597.40753 312.8094 596.90753 313.325Q596.42316 313.84064 596.42316 314.66876ZM602.2513 313.21564Q602.2513 311.6844 602.5638 310.7625Q602.8763 309.825 603.48566 309.325Q604.11066 308.825 605.04816 308.825Q605.73566 308.825 606.2513 309.10626Q606.78253 309.3875 607.1263 309.91876Q607.47003 310.4344 607.65753 311.1844Q607.84503 311.9344 607.84503 313.21564Q607.84503 314.73126 607.53253 315.65314Q607.23566 316.575 606.61066 317.09064Q606.0013 317.59064 605.04816 317.59064Q603.8138 317.59064 603.09503 316.7Q602.2513 315.6375 602.2513 313.21564ZM603.3294 313.21564Q603.3294 315.325 603.8294 316.02814Q604.3294 316.73126 605.04816 316.73126Q605.78253 316.73126 606.2669 316.02814Q606.7669 315.325 606.7669 313.21564Q606.7669 311.09064 606.2669 310.40314Q605.78253 309.7 605.03253 309.7Q604.3138 309.7 603.8763 310.3094Q603.3294 311.09064 603.3294 313.21564ZM609.2513 313.21564Q609.2513 311.6844 609.5638 310.7625Q609.8763 309.825 610.48566 309.325Q611.11066 308.825 612.04816 308.825Q612.73566 308.825 613.2513 309.10626Q613.78253 309.3875 614.1263 309.91876Q614.47003 310.4344 614.65753 311.1844Q614.84503 311.9344 614.84503 313.21564Q614.84503 314.73126 614.53253 315.65314Q614.23566 316.575 613.61066 317.09064Q613.0013 317.59064 612.04816 317.59064Q610.8138 317.59064 610.09503 316.7Q609.2513 315.6375 609.2513 313.21564ZM610.3294 313.21564Q610.3294 315.325 610.8294 316.02814Q611.3294 316.73126 612.04816 316.73126Q612.78253 316.73126 613.2669 316.02814Q613.7669 315.325 613.7669 313.21564Q613.7669 311.09064 613.2669 310.40314Q612.78253 309.7 612.03253 309.7Q611.3138 309.7 610.8763 310.3094Q610.3294 311.09064 610.3294 313.21564ZM616.2513 313.21564Q616.2513 311.6844 616.5638 310.7625Q616.8763 309.825 617.48566 309.325Q618.11066 308.825 619.04816 308.825Q619.73566 308.825 620.2513 309.10626Q620.78253 309.3875 621.1263 309.91876Q621.47003 310.4344 621.65753 311.1844Q621.84503 311.9344 621.84503 313.21564Q621.84503 314.73126 621.53253 315.65314Q621.23566 316.575 620.61066 317.09064Q620.0013 317.59064 619.04816 317.59064Q617.8138 317.59064 617.09503 316.7Q616.2513 315.6375 616.2513 313.21564ZM617.3294 313.21564Q617.3294 315.325 617.8294 316.02814Q618.3294 316.73126 619.04816 316.73126Q619.78253 316.73126 620.2669 316.02814Q620.7669 315.325 620.7669 313.21564Q620.7669 311.09064 620.2669 310.40314Q619.78253 309.7 619.03253 309.7Q618.3138 309.7 617.8763 310.3094Q617.3294 311.09064 617.3294 313.21564ZM623.2513 313.21564Q623.2513 311.6844 623.5638 310.7625Q623.8763 309.825 624.48566 309.325Q625.11066 308.825 626.04816 308.825Q626.73566 308.825 627.2513 309.10626Q627.78253 309.3875 628.1263 309.91876Q628.47003 310.4344 628.65753 311.1844Q628.84503 311.9344 628.84503 313.21564Q628.84503 314.73126 628.53253 315.65314Q628.23566 316.575 627.61066 317.09064Q627.0013 317.59064 626.04816 317.59064Q624.8138 317.59064 624.09503 316.7Q623.2513 315.6375 623.2513 313.21564ZM624.3294 313.21564Q624.3294 315.325 624.8294 316.02814Q625.3294 316.73126 626.04816 316.73126Q626.78253 316.73126 627.2669 316.02814Q627.7669 315.325 627.7669 313.21564Q627.7669 311.09064 627.2669 310.40314Q626.78253 309.7 626.03253 309.7Q625.3138 309.7 624.8763 310.3094Q624.3294 311.09064 624.3294 313.21564ZM630.2513 313.21564Q630.2513 311.6844 630.5638 310.7625Q630.8763 309.825 631.48566 309.325Q632.11066 308.825 633.04816 308.825Q633.73566 308.825 634.2513 309.10626Q634.78253 309.3875 635.1263 309.91876Q635.47003 310.4344 635.65753 311.1844Q635.84503 311.9344 635.84503 313.21564Q635.84503 314.73126 635.53253 315.65314Q635.23566 316.575 634.61066 317.09064Q634.0013 317.59064 633.04816 317.59064Q631.8138 317.59064 631.09503 316.7Q630.2513 315.6375 630.2513 313.21564ZM631.3294 313.21564Q631.3294 315.325 631.8294 316.02814Q632.3294 316.73126 633.04816 316.73126Q633.78253 316.73126 634.2669 316.02814Q634.7669 315.325 634.7669 313.21564Q634.7669 311.09064 634.2669 310.40314Q633.78253 309.7 633.03253 309.7Q632.3138 309.7 631.8763 310.3094Q631.3294 311.09064 631.3294 313.21564ZM637.2513 313.21564Q637.2513 311.6844 637.5638 310.7625Q637.8763 309.825 638.48566 309.325Q639.11066 308.825 640.04816 308.825Q640.73566 308.825 641.2513 309.10626Q641.78253 309.3875 642.1263 309.91876Q642.47003 310.4344 642.65753 311.1844Q642.84503 311.9344 642.84503 313.21564Q642.84503 314.73126 642.53253 315.65314Q642.23566 316.575 641.61066 317.09064Q641.0013 317.59064 640.04816 317.59064Q638.8138 317.59064 638.09503 316.7Q637.2513 315.6375 637.2513 313.21564ZM638.3294 313.21564Q638.3294 315.325 638.8294 316.02814Q639.3294 316.73126 640.04816 316.73126Q640.78253 316.73126 641.2669 316.02814Q641.7669 315.325 641.7669 313.21564Q641.7669 311.09064 641.2669 310.40314Q640.78253 309.7 640.03253 309.7Q639.3138 309.7 638.8763 310.3094Q638.3294 311.09064 638.3294 313.21564ZM644.2513 313.21564Q644.2513 311.6844 644.5638 310.7625Q644.8763 309.825 645.48566 309.325Q646.11066 308.825 647.04816 308.825Q647.73566 308.825 648.2513 309.10626Q648.78253 309.3875 649.1263 309.91876Q649.47003 310.4344 649.65753 311.1844Q649.84503 311.9344 649.84503 313.21564Q649.84503 314.73126 649.53253 315.65314Q649.23566 316.575 648.61066 317.09064Q648.0013 317.59064 647.04816 317.59064Q645.8138 317.59064 645.09503 316.7Q644.2513 315.6375 644.2513 313.21564ZM645.3294 313.21564Q645.3294 315.325 645.8294 316.02814Q646.3294 316.73126 647.04816 316.73126Q647.78253 316.73126 648.2669 316.02814Q648.7669 315.325 648.7669 313.21564Q648.7669 311.09064 648.2669 310.40314Q647.78253 309.7 647.03253 309.7Q646.3138 309.7 645.8763 310.3094Q645.3294 311.09064 645.3294 313.21564ZM651.2513 313.21564Q651.2513 311.6844 651.5638 310.7625Q651.8763 309.825 652.48566 309.325Q653.11066 308.825 654.04816 308.825Q654.73566 308.825 655.2513 309.10626Q655.78253 309.3875 656.1263 309.91876Q656.47003 310.4344 656.65753 311.1844Q656.84503 311.9344 656.84503 313.21564Q656.84503 314.73126 656.53253 315.65314Q656.23566 316.575 655.61066 317.09064Q655.0013 317.59064 654.04816 317.59064Q652.8138 317.59064 652.09503 316.7Q651.2513 315.6375 651.2513 313.21564ZM652.3294 313.21564Q652.3294 315.325 652.8294 316.02814Q653.3294 316.73126 654.04816 316.73126Q654.78253 316.73126 655.2669 316.02814Q655.7669 315.325 655.7669 313.21564Q655.7669 311.09064 655.2669 310.40314Q654.78253 309.7 654.03253 309.7Q653.3138 309.7 652.8763 310.3094Q652.3294 311.09064 652.3294 313.21564Z" fill-rule="nonzero"/><path fill="#000000" d="M790.47565 312.79376Q789.8194 312.54376 789.4913 312.10626Q789.1788 311.65314 789.1788 311.04376Q789.1788 310.10626 789.85065 309.46564Q790.53815 308.825 791.6475 308.825Q792.7725 308.825 793.46 309.48126Q794.1475 310.1375 794.1475 311.075Q794.1475 311.66876 793.835 312.10626Q793.5225 312.54376 792.8819 312.79376Q793.6788 313.04376 794.085 313.6219Q794.4913 314.2 794.4913 314.9969Q794.4913 316.09064 793.71 316.84064Q792.9444 317.59064 791.66315 317.59064Q790.3975 317.59064 789.6163 316.84064Q788.835 316.09064 788.835 314.96564Q788.835 314.1219 789.2569 313.5594Q789.6944 312.9969 790.47565 312.79376ZM790.2569 310.9969Q790.2569 311.60626 790.6475 311.9969Q791.0538 312.3875 791.6788 312.3875Q792.28815 312.3875 792.6788 312.0125Q793.0694 311.6219 793.0694 311.0594Q793.0694 310.48126 792.66315 310.09064Q792.2569 309.6844 791.66315 309.6844Q791.0538 309.6844 790.6475 310.075Q790.2569 310.46564 790.2569 310.9969ZM789.9288 314.96564Q789.9288 315.41876 790.1319 315.84064Q790.35065 316.2625 790.7725 316.4969Q791.1944 316.73126 791.6788 316.73126Q792.4288 316.73126 792.91315 316.2469Q793.41315 315.7625 793.41315 315.0125Q793.41315 314.2469 792.91315 313.7469Q792.41315 313.2469 791.6475 313.2469Q790.8975 313.2469 790.41315 313.7469Q789.9288 314.23126 789.9288 314.96564ZM795.85065 313.21564Q795.85065 311.6844 796.16315 310.7625Q796.47565 309.825 797.085 309.325Q797.71 308.825 798.6475 308.825Q799.335 308.825 799.85065 309.10626Q800.3819 309.3875 800.72565 309.91876Q801.0694 310.4344 801.2569 311.1844Q801.4444 311.9344 801.4444 313.21564Q801.4444 314.73126 801.1319 315.65314Q800.835 316.575 800.21 317.09064Q799.60065 317.59064 798.6475 317.59064Q797.41315 317.59064 796.6944 316.7Q795.85065 315.6375 795.85065 313.21564ZM796.9288 313.21564Q796.9288 315.325 797.4288 316.02814Q797.9288 316.73126 798.6475 316.73126Q799.3819 316.73126 799.8663 316.02814Q800.3663 315.325 800.3663 313.21564Q800.3663 311.09064 799.8663 310.40314Q799.3819 309.7 798.6319 309.7Q797.91315 309.7 797.47565 310.3094Q796.9288 311.09064 796.9288 313.21564ZM802.85065 313.21564Q802.85065 311.6844 803.16315 310.7625Q803.47565 309.825 804.085 309.325Q804.71 308.825 805.6475 308.825Q806.335 308.825 806.85065 309.10626Q807.3819 309.3875 807.72565 309.91876Q808.0694 310.4344 808.2569 311.1844Q808.4444 311.9344 808.4444 313.21564Q808.4444 314.73126 808.1319 315.65314Q807.835 316.575 807.21 317.09064Q806.60065 317.59064 805.6475 317.59064Q804.41315 317.59064 803.6944 316.7Q802.85065 315.6375 802.85065 313.21564ZM803.9288 313.21564Q803.9288 315.325 804.4288 316.02814Q804.9288 316.73126 805.6475 316.73126Q806.3819 316.73126 806.8663 316.02814Q807.3663 315.325 807.3663 313.21564Q807.3663 311.09064 806.8663 310.40314Q806.3819 309.7 805.6319 309.7Q804.91315 309.7 804.47565 310.3094Q803.9288 311.09064 803.9288 313.21564ZM809.85065 313.21564Q809.85065 311.6844 810.16315 310.7625Q810.47565 309.825 811.085 309.325Q811.71 308.825 812.6475 308.825Q813.335 308.825 813.85065 309.10626Q814.3819 309.3875 814.72565 309.91876Q815.0694 310.4344 815.2569 311.1844Q815.4444 311.9344 815.4444 313.21564Q815.4444 314.73126 815.1319 315.65314Q814.835 316.575 814.21 317.09064Q813.60065 317.59064 812.6475 317.59064Q811.41315 317.59064 810.6944 316.7Q809.85065 315.6375 809.85065 313.21564ZM810.9288 313.21564Q810.9288 315.325 811.4288 316.02814Q811.9288 316.73126 812.6475 316.73126Q813.3819 316.73126 813.8663 316.02814Q814.3663 315.325 814.3663 313.21564Q814.3663 311.09064 813.8663 310.40314Q813.3819 309.7 812.6319 309.7Q811.91315 309.7 811.47565 310.3094Q810.9288 311.09064 810.9288 313.21564ZM816.85065 313.21564Q816.85065 311.6844 817.16315 310.7625Q817.47565 309.825 818.085 309.325Q818.71 308.825 819.6475 308.825Q820.335 308.825 820.85065 309.10626Q821.3819 309.3875 821.72565 309.91876Q822.0694 310.4344 822.2569 311.1844Q822.4444 311.9344 822.4444 313.21564Q822.4444 314.73126 822.1319 315.65314Q821.835 316.575 821.21 317.09064Q820.60065 317.59064 819.6475 317.59064Q818.41315 317.59064 817.6944 316.7Q816.85065 315.6375 816.85065 313.21564ZM817.9288 313.21564Q817.9288 315.325 818.4288 316.02814Q818.9288 316.73126 819.6475 316.73126Q820.3819 316.73126 820.8663 316.02814Q821.3663 315.325 821.3663 313.21564Q821.3663 311.09064 820.8663 310.40314Q820.3819 309.7 819.6319 309.7Q818.91315 309.7 818.47565 310.3094Q817.9288 311.09064 817.9288 313.21564ZM823.85065 313.21564Q823.85065 311.6844 824.16315 310.7625Q824.47565 309.825 825.085 309.325Q825.71 308.825 826.6475 308.825Q827.335 308.825 827.85065 309.10626Q828.3819 309.3875 828.72565 309.91876Q829.0694 310.4344 829.2569 311.1844Q829.4444 311.9344 829.4444 313.21564Q829.4444 314.73126 829.1319 315.65314Q828.835 316.575 828.21 317.09064Q827.60065 317.59064 826.6475 317.59064Q825.41315 317.59064 824.6944 316.7Q823.85065 315.6375 823.85065 313.21564ZM824.9288 313.21564Q824.9288 315.325 825.4288 316.02814Q825.9288 316.73126 826.6475 316.73126Q827.3819 316.73126 827.8663 316.02814Q828.3663 315.325 828.3663 313.21564Q828.3663 311.09064 827.8663 310.40314Q827.3819 309.7 826.6319 309.7Q825.91315 309.7 825.47565 310.3094Q824.9288 311.09064 824.9288 313.21564ZM830.85065 313.21564Q830.85065 311.6844 831.16315 310.7625Q831.47565 309.825 832.085 309.325Q832.71 308.825 833.6475 308.825Q834.335 308.825 834.85065 309.10626Q835.3819 309.3875 835.72565 309.91876Q836.0694 310.4344 836.2569 311.1844Q836.4444 311.9344 836.4444 313.21564Q836.4444 314.73126 836.1319 315.65314Q835.835 316.575 835.21 317.09064Q834.60065 317.59064 833.6475 317.59064Q832.41315 317.59064 831.6944 316.7Q830.85065 315.6375 830.85065 313.21564ZM831.9288 313.21564Q831.9288 315.325 832.4288 316.02814Q832.9288 316.73126 833.6475 316.73126Q834.3819 316.73126 834.8663 316.02814Q835.3663 315.325 835.3663 313.21564Q835.3663 311.09064 834.8663 310.40314Q834.3819 309.7 833.6319 309.7Q832.91315 309.7 832.47565 310.3094Q831.9288 311.09064 831.9288 313.21564ZM837.85065 313.21564Q837.85065 311.6844 838.16315 310.7625Q838.47565 309.825 839.085 309.325Q839.71 308.825 840.6475 308.825Q841.335 308.825 841.85065 309.10626Q842.3819 309.3875 842.72565 309.91876Q843.0694 310.4344 843.2569 311.1844Q843.4444 311.9344 843.4444 313.21564Q843.4444 314.73126 843.1319 315.65314Q842.835 316.575 842.21 317.09064Q841.60065 317.59064 840.6475 317.59064Q839.41315 317.59064 838.6944 316.7Q837.85065 315.6375 837.85065 313.21564ZM838.9288 313.21564Q838.9288 315.325 839.4288 316.02814Q839.9288 316.73126 840.6475 316.73126Q841.3819 316.73126 841.8663 316.02814Q842.3663 315.325 842.3663 313.21564Q842.3663 311.09064 841.8663 310.40314Q841.3819 309.7 840.6319 309.7Q839.91315 309.7 839.47565 310.3094Q838.9288 311.09064 838.9288 313.21564ZM844.85065 313.21564Q844.85065 311.6844 845.16315 310.7625Q845.47565 309.825 846.085 309.325Q846.71 308.825 847.6475 308.825Q848.335 308.825 848.85065 309.10626Q849.3819 309.3875 849.72565 309.91876Q850.0694 310.4344 850.2569 311.1844Q850.4444 311.9344 850.4444 313.21564Q850.4444 314.73126 850.1319 315.65314Q849.835 316.575 849.21 317.09064Q848.60065 317.59064 847.6475 317.59064Q846.41315 317.59064 845.6944 316.7Q844.85065 315.6375 844.85065 313.21564ZM845.9288 313.21564Q845.9288 315.325 846.4288 316.02814Q846.9288 316.73126 847.6475 316.73126Q848.3819 316.73126 848.8663 316.02814Q849.3663 315.325 849.3663 313.21564Q849.3663 311.09064 848.8663 310.40314Q848.3819 309.7 847.6319 309.7Q846.91315 309.7 846.47565 310.3094Q845.9288 311.09064 845.9288 313.21564Z" fill-rule="nonzero"/><path stroke="#4285f4" stroke-width="4.0" stroke-linecap="butt" d="M379.5 61.916668L391.5 61.916668" fill-rule="nonzero"/><path fill="#1a1a1a" d="M400.375 65.916664L400.375 57.322914L401.51562 57.322914L401.51562 64.90104L405.75 64.90104L405.75 65.916664L400.375 65.916664ZM406.90625 62.80729Q406.90625 61.072914 407.85938 60.24479Q408.65625 59.55729 409.8125 59.55729Q411.09375 59.55729 411.90625 60.40104Q412.73438 61.229164 412.73438 62.71354Q412.73438 63.916664 412.375 64.604164Q412.01562 65.291664 411.3125 65.68229Q410.625 66.05729 409.8125 66.05729Q408.51562 66.05729 407.70312 65.229164Q406.90625 64.385414 406.90625 62.80729ZM407.98438 62.80729Q407.98438 63.99479 408.5 64.58854Q409.03125 65.18229 409.8125 65.18229Q410.60938 65.18229 411.125 64.58854Q411.64062 63.99479 411.64062 62.77604Q411.64062 61.61979 411.10938 61.02604Q410.59375 60.43229 409.8125 60.43229Q409.03125 60.43229 408.5 61.02604Q407.98438 61.604164 407.98438 62.80729ZM413.90625 62.80729Q413.90625 61.072914 414.85938 60.24479Q415.65625 59.55729 416.8125 59.55729Q418.09375 59.55729 418.90625 60.40104Q419.73438 61.229164 419.73438 62.71354Q419.73438 63.916664 419.375 64.604164Q419.01562 65.291664 418.3125 65.68229Q417.625 66.05729 416.8125 66.05729Q415.51562 66.05729 414.70312 65.229164Q413.90625 64.385414 413.90625 62.80729ZM414.98438 62.80729Q414.98438 63.99479 415.5 64.58854Q416.03125 65.18229 416.8125 65.18229Q417.60938 65.18229 418.125 64.58854Q418.64062 63.99479 418.64062 62.77604Q418.64062 61.61979 418.10938 61.02604Q417.59375 60.43229 416.8125 60.43229Q416.03125 60.43229 415.5 61.02604Q414.98438 61.604164 414.98438 62.80729ZM421.29688 68.30729L421.29688 59.697914L422.25 59.697914L422.25 60.49479Q422.59375 60.02604 423.01562 59.791664Q423.45312 59.55729 424.0625 59.55729Q424.85938 59.55729 425.46875 59.96354Q426.07812 60.36979 426.375 61.11979Q426.6875 61.86979 426.6875 62.760414Q426.6875 63.71354 426.34375 64.479164Q426.01562 65.24479 425.35938 65.65104Q424.70312 66.05729 423.98438 66.05729Q423.45312 66.05729 423.03125 65.83854Q422.60938 65.604164 422.34375 65.27604L422.34375 68.30729L421.29688 68.30729ZM422.25 62.83854Q422.25 64.041664 422.73438 64.61979Q423.21875 65.18229 423.90625 65.18229Q424.60938 65.18229 425.10938 64.58854Q425.60938 63.99479 425.60938 62.74479Q425.60938 61.55729 425.125 60.979164Q424.64062 60.385414 423.95312 60.385414Q423.28125 60.385414 422.76562 61.010414Q422.25 61.635414 422.25 62.83854ZM431.375 65.916664L431.375 57.322914L434.60938 57.322914Q435.59375 57.322914 436.1875 57.58854Q436.78125 57.854164 437.10938 58.40104Q437.45312 58.93229 437.45312 59.52604Q437.45312 60.072914 437.15625 60.55729Q436.85938 61.041664 436.25 61.33854Q437.03125 61.572914 437.4375 62.135414Q437.85938 62.68229 437.85938 63.43229Q437.85938 64.02604 437.60938 64.55729Q437.35938 65.072914 436.98438 65.354164Q436.60938 65.635414 436.03125 65.77604Q435.46875 65.916664 434.65625 65.916664L431.375 65.916664ZM432.51562 60.93229L434.375 60.93229Q435.125 60.93229 435.45312 60.83854Q435.89062 60.71354 436.10938 60.416664Q436.32812 60.104164 436.32812 59.65104Q436.32812 59.229164 436.125 58.90104Q435.92188 58.572914 435.53125 58.46354Q435.15625 58.33854 434.23438 58.33854L432.51562 58.33854L432.51562 60.93229ZM432.51562 64.90104L434.65625 64.90104Q435.20312 64.90104 435.42188 64.854164Q435.82812 64.791664 436.07812 64.635414Q436.34375 64.46354 436.51562 64.15104Q436.6875 63.83854 436.6875 63.43229Q436.6875 62.947914 436.4375 62.58854Q436.20312 62.229164 435.76562 62.08854Q435.32812 61.947914 434.5 61.947914L432.51562 61.947914L432.51562 64.90104ZM443.35938 65.15104Q442.76562 65.65104 442.21875 65.854164Q441.6875 66.05729 441.0625 66.05729Q440.03125 66.05729 439.48438 65.55729Q438.9375 65.05729 438.9375 64.27604Q438.9375 63.822914 439.14062 63.447914Q439.34375 63.05729 439.6875 62.83854Q440.03125 62.604164 440.45312 62.49479Q440.75 62.40104 441.39062 62.322914Q442.65625 62.18229 443.26562 61.96354Q443.26562 61.74479 443.26562 61.697914Q443.26562 61.041664 442.96875 60.77604Q442.5625 60.43229 441.76562 60.43229Q441.03125 60.43229 440.67188 60.697914Q440.3125 60.947914 440.14062 61.604164L439.10938 61.46354Q439.25 60.80729 439.57812 60.40104Q439.90625 59.99479 440.51562 59.77604Q441.125 59.55729 441.92188 59.55729Q442.71875 59.55729 443.21875 59.74479Q443.71875 59.93229 443.95312 60.21354Q444.1875 60.49479 444.28125 60.93229Q444.32812 61.197914 444.32812 61.90104L444.32812 63.30729Q444.32812 64.77604 444.39062 65.166664Q444.46875 65.55729 444.67188 65.916664L443.5625 65.916664Q443.40625 65.58854 443.35938 65.15104ZM443.26562 62.791664Q442.6875 63.02604 441.54688 63.197914Q440.89062 63.291664 440.625 63.416664Q440.35938 63.52604 440.20312 63.74479Q440.0625 63.96354 440.0625 64.24479Q440.0625 64.666664 440.375 64.947914Q440.70312 65.229164 441.3125 65.229164Q441.92188 65.229164 442.39062 64.96354Q442.875 64.697914 443.09375 64.229164Q443.26562 63.86979 443.26562 63.18229L443.26562 62.791664ZM445.875 64.05729L446.90625 63.90104Q447.0 64.52604 447.39062 64.854164Q447.79688 65.18229 448.53125 65.18229Q449.25 65.18229 449.59375 64.90104Q449.95312 64.604164 449.95312 64.197914Q449.95312 63.83854 449.64062 63.635414Q449.42188 63.49479 448.5625 63.27604Q447.40625 62.979164 446.95312 62.77604Q446.51562 62.55729 446.28125 62.18229Q446.04688 61.80729 446.04688 61.33854Q446.04688 60.93229 446.23438 60.572914Q446.42188 60.21354 446.75 59.979164Q447.0 59.80729 447.42188 59.68229Q447.84375 59.55729 448.34375 59.55729Q449.0625 59.55729 449.60938 59.77604Q450.17188 59.979164 450.4375 60.33854Q450.70312 60.697914 450.79688 61.291664L449.76562 61.43229Q449.70312 60.96354 449.35938 60.697914Q449.03125 60.416664 448.40625 60.416664Q447.6875 60.416664 447.375 60.666664Q447.0625 60.90104 447.0625 61.229164Q447.0625 61.43229 447.1875 61.58854Q447.32812 61.760414 447.59375 61.86979Q447.75 61.93229 448.53125 62.135414Q449.65625 62.447914 450.09375 62.635414Q450.53125 62.822914 450.78125 63.18229Q451.03125 63.541664 451.03125 64.08854Q451.03125 64.61979 450.71875 65.08854Q450.42188 65.541664 449.84375 65.80729Q449.26562 66.05729 448.53125 66.05729Q447.3125 66.05729 446.67188 65.55729Q446.04688 65.041664 445.875 64.05729ZM457.54688 63.916664L458.64062 64.041664Q458.39062 64.99479 457.6875 65.52604Q456.98438 66.05729 455.90625 66.05729Q454.54688 66.05729 453.73438 65.21354Q452.9375 64.36979 452.9375 62.854164Q452.9375 61.291664 453.75 60.43229Q454.5625 59.55729 455.84375 59.55729Q457.09375 59.55729 457.875 60.40104Q458.67188 61.24479 458.67188 62.791664Q458.67188 62.885414 458.67188 63.072914L454.03125 63.072914Q454.09375 64.104164 454.60938 64.65104Q455.125 65.18229 455.90625 65.18229Q456.48438 65.18229 456.89062 64.885414Q457.3125 64.572914 457.54688 63.916664ZM454.09375 62.21354L457.5625 62.21354Q457.5 61.416664 457.17188 61.02604Q456.65625 60.416664 455.85938 60.416664Q455.125 60.416664 454.625 60.90104Q454.14062 61.385414 454.09375 62.21354ZM464.32812 65.916664L464.32812 65.135414Q463.73438 66.05729 462.59375 66.05729Q461.84375 66.05729 461.21875 65.65104Q460.59375 65.229164 460.25 64.49479Q459.90625 63.760414 459.90625 62.80729Q459.90625 61.885414 460.21875 61.11979Q460.53125 60.354164 461.15625 59.96354Q461.78125 59.55729 462.54688 59.55729Q463.10938 59.55729 463.54688 59.791664Q463.98438 60.02604 464.26562 60.40104L464.26562 57.322914L465.3125 57.322914L465.3125 65.916664L464.32812 65.916664ZM461.0 62.80729Q461.0 64.010414 461.5 64.604164Q462.0 65.18229 462.6875 65.18229Q463.375 65.18229 463.85938 64.61979Q464.34375 64.05729 464.34375 62.90104Q464.34375 61.61979 463.84375 61.02604Q463.35938 60.43229 462.64062 60.43229Q461.9375 60.43229 461.46875 61.010414Q461.0 61.572914 461.0 62.80729ZM470.04688 63.15104L471.10938 63.05729Q471.1875 63.71354 471.46875 64.11979Q471.75 64.52604 472.32812 64.791664Q472.92188 65.041664 473.65625 65.041664Q474.29688 65.041664 474.79688 64.854164Q475.29688 64.65104 475.53125 64.322914Q475.78125 63.979164 475.78125 63.58854Q475.78125 63.18229 475.54688 62.885414Q475.3125 62.572914 474.78125 62.36979Q474.42188 62.229164 473.23438 61.947914Q472.0625 61.666664 471.59375 61.416664Q470.96875 61.08854 470.67188 60.61979Q470.375 60.135414 470.375 59.541664Q470.375 58.90104 470.73438 58.33854Q471.10938 57.760414 471.8125 57.479164Q472.53125 57.18229 473.39062 57.18229Q474.34375 57.18229 475.07812 57.49479Q475.8125 57.791664 476.20312 58.40104Q476.59375 58.99479 476.625 59.74479L475.53125 59.822914Q475.4375 59.010414 474.92188 58.604164Q474.42188 58.18229 473.4375 58.18229Q472.40625 58.18229 471.9375 58.55729Q471.46875 58.93229 471.46875 59.46354Q471.46875 59.93229 471.79688 60.229164Q472.125 60.52604 473.5 60.83854Q474.89062 61.15104 475.40625 61.385414Q476.15625 61.74479 476.51562 62.27604Q476.875 62.791664 476.875 63.49479Q476.875 64.18229 476.48438 64.791664Q476.09375 65.385414 475.35938 65.729164Q474.625 66.05729 473.70312 66.05729Q472.53125 66.05729 471.73438 65.729164Q470.95312 65.385414 470.5 64.697914Q470.0625 64.010414 470.04688 63.15104ZM477.90625 62.80729Q477.90625 61.072914 478.85938 60.24479Q479.65625 59.55729 480.8125 59.55729Q482.09375 59.55729 482.90625 60.40104Q483.73438 61.229164 483.73438 62.71354Q483.73438 63.916664 483.375 64.604164Q483.01562 65.291664 482.3125 65.68229Q481.625 66.05729 480.8125 66.05729Q479.51562 66.05729 478.70312 65.229164Q477.90625 64.385414 477.90625 62.80729ZM478.98438 62.80729Q478.98438 63.99479 479.5 64.58854Q480.03125 65.18229 480.8125 65.18229Q481.60938 65.18229 482.125 64.58854Q482.64062 63.99479 482.64062 62.77604Q482.64062 61.61979 482.10938 61.02604Q481.59375 60.43229 480.8125 60.43229Q480.03125 60.43229 479.5 61.02604Q478.98438 61.604164 478.98438 62.80729ZM485.26562 65.916664L485.26562 57.322914L486.32812 57.322914L486.32812 65.916664L485.26562 65.916664ZM492.375 65.916664L492.375 64.99479Q491.64062 66.05729 490.39062 66.05729Q489.84375 66.05729 489.35938 65.854164Q488.89062 65.635414 488.65625 65.322914Q488.42188 64.99479 488.32812 64.52604Q488.26562 64.229164 488.26562 63.541664L488.26562 59.697914L489.32812 59.697914L489.32812 63.15104Q489.32812 63.96354 489.39062 64.260414Q489.48438 64.666664 489.79688 64.916664Q490.125 65.15104 490.60938 65.15104Q491.07812 65.15104 491.48438 64.916664Q491.90625 64.666664 492.07812 64.24479Q492.26562 63.822914 492.26562 63.02604L492.26562 59.697914L493.3125 59.697914L493.3125 65.916664L492.375 65.916664ZM497.59375 64.979164L497.75 65.90104Q497.29688 65.99479 496.95312 65.99479Q496.375 65.99479 496.0625 65.822914Q495.75 65.635414 495.60938 65.33854Q495.48438 65.041664 495.48438 64.08854L495.48438 60.510414L494.71875 60.510414L494.71875 59.697914L495.48438 59.697914L495.48438 58.15104L496.53125 57.52604L496.53125 59.697914L497.59375 59.697914L497.59375 60.510414L496.53125 60.510414L496.53125 64.15104Q496.53125 64.604164 496.57812 64.729164Q496.64062 64.854164 496.76562 64.93229Q496.89062 65.010414 497.125 65.010414Q497.3125 65.010414 497.59375 64.979164ZM498.29688 58.541664L498.29688 57.322914L499.35938 57.322914L499.35938 58.541664L498.29688 58.541664ZM498.29688 65.916664L498.29688 59.697914L499.35938 59.697914L499.35938 65.916664L498.29688 65.916664ZM500.90625 62.80729Q500.90625 61.072914 501.85938 60.24479Q502.65625 59.55729 503.8125 59.55729Q505.09375 59.55729 505.90625 60.40104Q506.73438 61.229164 506.73438 62.71354Q506.73438 63.916664 506.375 64.604164Q506.01562 65.291664 505.3125 65.68229Q504.625 66.05729 503.8125 66.05729Q502.51562 66.05729 501.70312 65.229164Q500.90625 64.385414 500.90625 62.80729ZM501.98438 62.80729Q501.98438 63.99479 502.5 64.58854Q503.03125 65.18229 503.8125 65.18229Q504.60938 65.18229 505.125 64.58854Q505.64062 63.99479 505.64062 62.77604Q505.64062 61.61979 505.10938 61.02604Q504.59375 60.43229 503.8125 60.43229Q503.03125 60.43229 502.5 61.02604Q501.98438 61.604164 501.98438 62.80729ZM508.29688 65.916664L508.29688 59.697914L509.23438 59.697914L509.23438 60.572914Q509.92188 59.55729 511.21875 59.55729Q511.78125 59.55729 512.25 59.760414Q512.7344 59.96354 512.96875 60.291664Q513.2031 60.61979 513.2969 61.05729Q513.34375 61.354164 513.34375 62.08854L513.34375 65.916664L512.2969 65.916664L512.2969 62.135414Q512.2969 61.479164 512.1719 61.166664Q512.0469 60.854164 511.73438 60.666664Q511.42188 60.46354 511.0 60.46354Q510.32812 60.46354 509.82812 60.90104Q509.34375 61.322914 509.34375 62.510414L509.34375 65.916664L508.29688 65.916664Z" fill-rule="nonzero"/><path stroke="#ea4335" stroke-width="4.0" stroke-linecap="butt" d="M530.5 61.916668L542.5 61.916668" fill-rule="nonzero"/><path fill="#1a1a1a" d="M550.4844 65.916664L553.78125 57.322914L555.0 57.322914L558.5156 65.916664L557.2344 65.916664L556.21875 63.30729L552.6406 63.30729L551.6875 65.916664L550.4844 65.916664ZM552.96875 62.385414L555.875 62.385414L554.9844 60.010414Q554.5625 58.93229 554.375 58.229164Q554.2031 59.05729 553.90625 59.86979L552.96875 62.385414ZM558.28125 65.916664L558.28125 59.697914L559.2344 59.697914L559.2344 60.635414Q559.59375 59.979164 559.8906 59.77604Q560.2031 59.55729 560.5781 59.55729Q561.1094 59.55729 561.65625 59.885414L561.2969 60.86979Q560.90625 60.635414 560.53125 60.635414Q560.1719 60.635414 559.8906 60.854164Q559.625 61.05729 559.5156 61.43229Q559.3281 61.99479 559.3281 62.65104L559.3281 65.916664L558.28125 65.916664ZM562.2969 58.541664L562.2969 57.322914L563.3594 57.322914L563.3594 58.541664L562.2969 58.541664ZM562.2969 65.916664L562.2969 59.697914L563.3594 59.697914L563.3594 65.916664L562.2969 65.916664ZM567.59375 64.979164L567.75 65.90104Q567.2969 65.99479 566.9531 65.99479Q566.375 65.99479 566.0625 65.822914Q565.75 65.635414 565.6094 65.33854Q565.4844 65.041664 565.4844 64.08854L565.4844 60.510414L564.71875 60.510414L564.71875 59.697914L565.4844 59.697914L565.4844 58.15104L566.53125 57.52604L566.53125 59.697914L567.59375 59.697914L567.59375 60.510414L566.53125 60.510414L566.53125 64.15104Q566.53125 64.604164 566.5781 64.729164Q566.6406 64.854164 566.7656 64.93229Q566.8906 65.010414 567.125 65.010414Q567.3125 65.010414 567.59375 64.979164ZM568.2969 65.916664L568.2969 57.322914L569.34375 57.322914L569.34375 60.40104Q570.0781 59.55729 571.2031 59.55729Q571.90625 59.55729 572.40625 59.83854Q572.9219 60.104164 573.1406 60.58854Q573.3594 61.05729 573.3594 61.979164L573.3594 65.916664L572.3125 65.916664L572.3125 61.979164Q572.3125 61.18229 571.96875 60.822914Q571.625 60.46354 571.0 60.46354Q570.53125 60.46354 570.1094 60.71354Q569.7031 60.947914 569.5156 61.36979Q569.34375 61.77604 569.34375 62.510414L569.34375 65.916664L568.2969 65.916664ZM575.2969 65.916664L575.2969 59.697914L576.2344 59.697914L576.2344 60.572914Q576.53125 60.104164 577.0156 59.83854Q577.5 59.55729 578.125 59.55729Q578.8125 59.55729 579.25 59.83854Q579.7031 60.11979 579.875 60.635414Q580.625 59.55729 581.7969 59.55729Q582.7344 59.55729 583.21875 60.072914Q583.71875 60.572914 583.71875 61.65104L583.71875 65.916664L582.6719 65.916664L582.6719 61.99479Q582.6719 61.36979 582.5625 61.08854Q582.46875 60.80729 582.2031 60.635414Q581.9375 60.46354 581.5625 60.46354Q580.90625 60.46354 580.46875 60.90104Q580.0469 61.33854 580.0469 62.30729L580.0469 65.916664L578.9844 65.916664L578.9844 61.86979Q578.9844 61.166664 578.71875 60.822914Q578.46875 60.46354 577.8906 60.46354Q577.4375 60.46354 577.0625 60.697914Q576.6875 60.93229 576.5156 61.385414Q576.34375 61.83854 576.34375 62.68229L576.34375 65.916664L575.2969 65.916664ZM590.5469 63.916664L591.6406 64.041664Q591.3906 64.99479 590.6875 65.52604Q589.9844 66.05729 588.90625 66.05729Q587.5469 66.05729 586.7344 65.21354Q585.9375 64.36979 585.9375 62.854164Q585.9375 61.291664 586.75 60.43229Q587.5625 59.55729 588.84375 59.55729Q590.09375 59.55729 590.875 60.40104Q591.6719 61.24479 591.6719 62.791664Q591.6719 62.885414 591.6719 63.072914L587.03125 63.072914Q587.09375 64.104164 587.6094 64.65104Q588.125 65.18229 588.90625 65.18229Q589.4844 65.18229 589.8906 64.885414Q590.3125 64.572914 590.5469 63.916664ZM587.09375 62.21354L590.5625 62.21354Q590.5 61.416664 590.1719 61.02604Q589.65625 60.416664 588.8594 60.416664Q588.125 60.416664 587.625 60.90104Q587.1406 61.385414 587.09375 62.21354ZM595.59375 64.979164L595.75 65.90104Q595.2969 65.99479 594.9531 65.99479Q594.375 65.99479 594.0625 65.822914Q593.75 65.635414 593.6094 65.33854Q593.4844 65.041664 593.4844 64.08854L593.4844 60.510414L592.71875 60.510414L592.71875 59.697914L593.4844 59.697914L593.4844 58.15104L594.53125 57.52604L594.53125 59.697914L595.59375 59.697914L595.59375 60.510414L594.53125 60.510414L594.53125 64.15104Q594.53125 64.604164 594.5781 64.729164Q594.6406 64.854164 594.7656 64.93229Q594.8906 65.010414 595.125 65.010414Q595.3125 65.010414 595.59375 64.979164ZM596.2969 58.541664L596.2969 57.322914L597.3594 57.322914L597.3594 58.541664L596.2969 58.541664ZM596.2969 65.916664L596.2969 59.697914L597.3594 59.697914L597.3594 65.916664L596.2969 65.916664ZM603.3594 63.635414L604.3906 63.77604Q604.21875 64.83854 603.5156 65.447914Q602.8125 66.05729 601.7969 66.05729Q600.5156 66.05729 599.7344 65.229164Q598.96875 64.385414 598.96875 62.822914Q598.96875 61.822914 599.2969 61.072914Q599.6406 60.30729 600.3125 59.93229Q601.0 59.55729 601.8125 59.55729Q602.8125 59.55729 603.4531 60.072914Q604.1094 60.572914 604.2969 61.52604L603.2656 61.68229Q603.125 61.05729 602.75 60.74479Q602.375 60.416664 601.84375 60.416664Q601.0469 60.416664 600.5469 60.99479Q600.0469 61.55729 600.0469 62.791664Q600.0469 64.05729 600.53125 64.61979Q601.0156 65.18229 601.78125 65.18229Q602.40625 65.18229 602.8125 64.80729Q603.2344 64.43229 603.3594 63.635414ZM608.0469 63.15104L609.1094 63.05729Q609.1875 63.71354 609.46875 64.11979Q609.75 64.52604 610.3281 64.791664Q610.9219 65.041664 611.65625 65.041664Q612.2969 65.041664 612.7969 64.854164Q613.2969 64.65104 613.53125 64.322914Q613.78125 63.979164 613.78125 63.58854Q613.78125 63.18229 613.5469 62.885414Q613.3125 62.572914 612.78125 62.36979Q612.4219 62.229164 611.2344 61.947914Q610.0625 61.666664 609.59375 61.416664Q608.96875 61.08854 608.6719 60.61979Q608.375 60.135414 608.375 59.541664Q608.375 58.90104 608.7344 58.33854Q609.1094 57.760414 609.8125 57.479164Q610.53125 57.18229 611.3906 57.18229Q612.34375 57.18229 613.0781 57.49479Q613.8125 57.791664 614.2031 58.40104Q614.59375 58.99479 614.625 59.74479L613.53125 59.822914Q613.4375 59.010414 612.9219 58.604164Q612.4219 58.18229 611.4375 58.18229Q610.40625 58.18229 609.9375 58.55729Q609.46875 58.93229 609.46875 59.46354Q609.46875 59.93229 609.7969 60.229164Q610.125 60.52604 611.5 60.83854Q612.8906 61.15104 613.40625 61.385414Q614.15625 61.74479 614.5156 62.27604Q614.875 62.791664 614.875 63.49479Q614.875 64.18229 614.4844 64.791664Q614.09375 65.385414 613.3594 65.729164Q612.625 66.05729 611.7031 66.05729Q610.53125 66.05729 609.7344 65.729164Q608.9531 65.385414 608.5 64.697914Q608.0625 64.010414 608.0469 63.15104ZM615.90625 62.80729Q615.90625 61.072914 616.8594 60.24479Q617.65625 59.55729 618.8125 59.55729Q620.09375 59.55729 620.90625 60.40104Q621.7344 61.229164 621.7344 62.71354Q621.7344 63.916664 621.375 64.604164Q621.0156 65.291664 620.3125 65.68229Q619.625 66.05729 618.8125 66.05729Q617.5156 66.05729 616.7031 65.229164Q615.90625 64.385414 615.90625 62.80729ZM616.9844 62.80729Q616.9844 63.99479 617.5 64.58854Q618.03125 65.18229 618.8125 65.18229Q619.6094 65.18229 620.125 64.58854Q620.6406 63.99479 620.6406 62.77604Q620.6406 61.61979 620.1094 61.02604Q619.59375 60.43229 618.8125 60.43229Q618.03125 60.43229 617.5 61.02604Q616.9844 61.604164 616.9844 62.80729ZM623.2656 65.916664L623.2656 57.322914L624.3281 57.322914L624.3281 65.916664L623.2656 65.916664ZM630.375 65.916664L630.375 64.99479Q629.6406 66.05729 628.3906 66.05729Q627.84375 66.05729 627.3594 65.854164Q626.8906 65.635414 626.65625 65.322914Q626.4219 64.99479 626.3281 64.52604Q626.2656 64.229164 626.2656 63.541664L626.2656 59.697914L627.3281 59.697914L627.3281 63.15104Q627.3281 63.96354 627.3906 64.260414Q627.4844 64.666664 627.7969 64.916664Q628.125 65.15104 628.6094 65.15104Q629.0781 65.15104 629.4844 64.916664Q629.90625 64.666664 630.0781 64.24479Q630.2656 63.822914 630.2656 63.02604L630.2656 59.697914L631.3125 59.697914L631.3125 65.916664L630.375 65.916664ZM635.59375 64.979164L635.75 65.90104Q635.2969 65.99479 634.9531 65.99479Q634.375 65.99479 634.0625 65.822914Q633.75 65.635414 633.6094 65.33854Q633.4844 65.041664 633.4844 64.08854L633.4844 60.510414L632.71875 60.510414L632.71875 59.697914L633.4844 59.697914L633.4844 58.15104L634.53125 57.52604L634.53125 59.697914L635.59375 59.697914L635.59375 60.510414L634.53125 60.510414L634.53125 64.15104Q634.53125 64.604164 634.5781 64.729164Q634.6406 64.854164 634.7656 64.93229Q634.8906 65.010414 635.125 65.010414Q635.3125 65.010414 635.59375 64.979164ZM636.2969 58.541664L636.2969 57.322914L637.3594 57.322914L637.3594 58.541664L636.2969 58.541664ZM636.2969 65.916664L636.2969 59.697914L637.3594 59.697914L637.3594 65.916664L636.2969 65.916664ZM638.90625 62.80729Q638.90625 61.072914 639.8594 60.24479Q640.65625 59.55729 641.8125 59.55729Q643.09375 59.55729 643.90625 60.40104Q644.7344 61.229164 644.7344 62.71354Q644.7344 63.916664 644.375 64.604164Q644.0156 65.291664 643.3125 65.68229Q642.625 66.05729 641.8125 66.05729Q640.5156 66.05729 639.7031 65.229164Q638.90625 64.385414 638.90625 62.80729ZM639.9844 62.80729Q639.9844 63.99479 640.5 64.58854Q641.03125 65.18229 641.8125 65.18229Q642.6094 65.18229 643.125 64.58854Q643.6406 63.99479 643.6406 62.77604Q643.6406 61.61979 643.1094 61.02604Q642.59375 60.43229 641.8125 60.43229Q641.03125 60.43229 640.5 61.02604Q639.9844 61.604164 639.9844 62.80729ZM646.2969 65.916664L646.2969 59.697914L647.2344 59.697914L647.2344 60.572914Q647.9219 59.55729 649.21875 59.55729Q649.78125 59.55729 650.25 59.760414Q650.7344 59.96354 650.96875 60.291664Q651.2031 60.61979 651.2969 61.05729Q651.34375 61.354164 651.34375 62.08854L651.34375 65.916664L650.2969 65.916664L650.2969 62.135414Q650.2969 61.479164 650.1719 61.166664Q650.0469 60.854164 649.7344 60.666664Q649.4219 60.46354 649.0 60.46354Q648.3281 60.46354 647.8281 60.90104Q647.34375 61.322914 647.34375 62.510414L647.34375 65.916664L646.2969 65.916664Z" fill-rule="nonzero"/><path fill="#757575" d="M20.01875 37.55L20.01875 23.2375L21.909374 23.2375L21.909374 35.8625L28.95625 35.8625L28.95625 37.55L20.01875 37.55ZM30.221874 32.3625Q30.221874 29.4875 31.815624 28.096874Q33.159374 26.940624 35.08125 26.940624Q37.221874 26.940624 38.565624 28.346874Q39.925 29.753124 39.925 32.221874Q39.925 34.221874 39.33125 35.378124Q38.7375 36.51875 37.58125 37.159374Q36.440624 37.784374 35.08125 37.784374Q32.89375 37.784374 31.55 36.39375Q30.221874 34.9875 30.221874 32.3625ZM32.01875 32.3625Q32.01875 34.3625 32.878124 35.346874Q33.753124 36.33125 35.08125 36.33125Q36.39375 36.33125 37.253124 35.346874Q38.128124 34.346874 38.128124 32.3Q38.128124 30.378124 37.253124 29.39375Q36.378124 28.39375 35.08125 28.39375Q33.753124 28.39375 32.878124 29.39375Q32.01875 30.378124 32.01875 32.3625ZM41.221874 32.3625Q41.221874 29.4875 42.815624 28.096874Q44.159374 26.940624 46.08125 26.940624Q48.221874 26.940624 49.565624 28.346874Q50.925 29.753124 50.925 32.221874Q50.925 34.221874 50.33125 35.378124Q49.7375 36.51875 48.58125 37.159374Q47.440624 37.784374 46.08125 37.784374Q43.89375 37.784374 42.55 36.39375Q41.221874 34.9875 41.221874 32.3625ZM43.01875 32.3625Q43.01875 34.3625 43.878124 35.346874Q44.753124 36.33125 46.08125 36.33125Q47.39375 36.33125 48.253124 35.346874Q49.128124 34.346874 49.128124 32.3Q49.128124 30.378124 48.253124 29.39375Q47.378124 28.39375 46.08125 28.39375Q44.753124 28.39375 43.878124 29.39375Q43.01875 30.378124 43.01875 32.3625ZM52.8625 41.51875L52.8625 27.175L54.471874 27.175L54.471874 28.51875Q55.034374 27.7375 55.7375 27.346874Q56.45625 26.940624 57.471874 26.940624Q58.8 26.940624 59.815624 27.628124Q60.83125 28.315624 61.346874 29.565624Q61.878124 30.8 61.878124 32.284374Q61.878124 33.878124 61.3 35.159374Q60.7375 36.425 59.64375 37.1125Q58.55 37.784374 57.346874 37.784374Q56.471874 37.784374 55.76875 37.409374Q55.08125 37.034374 54.628124 36.471874L54.628124 41.51875L52.8625 41.51875ZM54.45625 32.425Q54.45625 34.425 55.26875 35.378124Q56.08125 36.33125 57.2375 36.33125Q58.409374 36.33125 59.2375 35.346874Q60.08125 34.3625 60.08125 32.26875Q60.08125 30.3 59.253124 29.315624Q58.440624 28.315624 57.315624 28.315624Q56.190624 28.315624 55.315624 29.378124Q54.45625 30.425 54.45625 32.425ZM70.01875 37.55L70.01875 23.2375L75.39375 23.2375Q77.03438 23.2375 78.01875 23.675Q79.00313 24.096874 79.56563 25.003124Q80.12813 25.909374 80.12813 26.89375Q80.12813 27.815624 79.62813 28.628124Q79.14375 29.440624 78.12813 29.925Q79.425 30.315624 80.12813 31.2375Q80.83125 32.14375 80.83125 33.39375Q80.83125 34.409374 80.39375 35.26875Q79.97188 36.128124 79.34688 36.596874Q78.72188 37.065624 77.78438 37.315624Q76.84688 37.55 75.47188 37.55L70.01875 37.55ZM71.90938 29.253124L75.00313 29.253124Q76.26875 29.253124 76.81563 29.08125Q77.53438 28.8625 77.89375 28.378124Q78.26875 27.878124 78.26875 27.1125Q78.26875 26.409374 77.925 25.8625Q77.58125 25.315624 76.94063 25.128124Q76.31563 24.925 74.76875 24.925L71.90938 24.925L71.90938 29.253124ZM71.90938 35.8625L75.47188 35.8625Q76.39375 35.8625 76.76875 35.784374Q77.425 35.675 77.8625 35.409374Q78.3 35.128124 78.58125 34.6125Q78.8625 34.08125 78.8625 33.39375Q78.8625 32.596874 78.45625 32.003124Q78.05 31.409374 77.31563 31.175Q76.58125 30.940624 75.22188 30.940624L71.90938 30.940624L71.90938 35.8625ZM89.64375 36.26875Q88.65938 37.096874 87.75313 37.440624Q86.84688 37.784374 85.81563 37.784374Q84.1125 37.784374 83.19063 36.95625Q82.26875 36.1125 82.26875 34.815624Q82.26875 34.05 82.6125 33.425Q82.97188 32.8 83.53438 32.425Q84.09688 32.034374 84.8 31.83125Q85.31563 31.70625 86.3625 31.565624Q88.4875 31.315624 89.4875 30.971874Q89.50313 30.6125 89.50313 30.503124Q89.50313 29.440624 89.00313 28.9875Q88.33125 28.39375 87.00313 28.39375Q85.75313 28.39375 85.15938 28.83125Q84.58125 29.26875 84.3 30.378124L82.58125 30.14375Q82.81563 29.034374 83.34688 28.3625Q83.87813 27.675 84.89375 27.315624Q85.90938 26.940624 87.25313 26.940624Q88.58125 26.940624 89.40938 27.253124Q90.2375 27.565624 90.62813 28.05Q91.01875 28.51875 91.175 29.2375Q91.26875 29.690624 91.26875 30.8625L91.26875 33.20625Q91.26875 35.659374 91.37813 36.315624Q91.4875 36.95625 91.83125 37.55L89.9875 37.55Q89.72188 37.003124 89.64375 36.26875ZM89.4875 32.346874Q88.53438 32.7375 86.6125 33.003124Q85.53438 33.159374 85.08125 33.3625Q84.64375 33.55 84.39375 33.925Q84.14375 34.3 84.14375 34.76875Q84.14375 35.471874 84.675 35.940624Q85.20625 36.409374 86.2375 36.409374Q87.25313 36.409374 88.03438 35.971874Q88.83125 35.51875 89.20625 34.753124Q89.4875 34.14375 89.4875 32.9875L89.4875 32.346874ZM93.15938 34.45625L94.90938 34.175Q95.05 35.221874 95.72188 35.784374Q96.39375 36.33125 97.59688 36.33125Q98.8 36.33125 99.37813 35.846874Q99.97188 35.346874 99.97188 34.690624Q99.97188 34.096874 99.45625 33.753124Q99.09688 33.51875 97.65938 33.159374Q95.72188 32.659374 94.97188 32.315624Q94.2375 31.95625 93.84688 31.33125Q93.45625 30.690624 93.45625 29.925Q93.45625 29.2375 93.76875 28.64375Q94.09688 28.05 94.64375 27.659374Q95.05 27.3625 95.75313 27.159374Q96.47188 26.940624 97.28438 26.940624Q98.50313 26.940624 99.425 27.3Q100.34688 27.64375 100.78438 28.253124Q101.22188 28.846874 101.39375 29.846874L99.675 30.08125Q99.55 29.284374 98.9875 28.846874Q98.425 28.39375 97.40938 28.39375Q96.19063 28.39375 95.675 28.8Q95.15938 29.190624 95.15938 29.721874Q95.15938 30.065624 95.37813 30.346874Q95.58125 30.628124 96.05 30.815624Q96.31563 30.909374 97.59688 31.253124Q99.47188 31.753124 100.20625 32.08125Q100.94063 32.39375 101.3625 33.003124Q101.78438 33.596874 101.78438 34.503124Q101.78438 35.378124 101.26875 36.159374Q100.75313 36.940624 99.78438 37.3625Q98.81563 37.784374 97.59688 37.784374Q95.58125 37.784374 94.51875 36.940624Q93.45625 36.096874 93.15938 34.45625ZM110.97188 34.20625L112.78438 34.440624Q112.3625 36.01875 111.19063 36.909374Q110.03438 37.784374 108.22188 37.784374Q105.95625 37.784374 104.6125 36.39375Q103.28438 34.9875 103.28438 32.45625Q103.28438 29.83125 104.62813 28.39375Q105.97188 26.940624 108.12813 26.940624Q110.20625 26.940624 111.51875 28.3625Q112.84688 29.76875 112.84688 32.346874Q112.84688 32.503124 112.83125 32.815624L105.09688 32.815624Q105.19063 34.51875 106.06563 35.425Q106.94063 36.33125 108.2375 36.33125Q109.20625 36.33125 109.87813 35.83125Q110.56563 35.315624 110.97188 34.20625ZM105.19063 31.3625L110.9875 31.3625Q110.87813 30.065624 110.33125 29.409374Q109.4875 28.39375 108.14375 28.39375Q106.94063 28.39375 106.1125 29.20625Q105.28438 30.003124 105.19063 31.3625ZM121.59688 37.55L121.59688 36.2375Q120.6125 37.784374 118.69063 37.784374Q117.45625 37.784374 116.40938 37.096874Q115.37813 36.409374 114.8 35.190624Q114.2375 33.971874 114.2375 32.378124Q114.2375 30.815624 114.75313 29.55Q115.26875 28.284374 116.3 27.6125Q117.34688 26.940624 118.6125 26.940624Q119.55 26.940624 120.28438 27.346874Q121.01875 27.7375 121.4875 28.3625L121.4875 23.2375L123.22188 23.2375L123.22188 37.55L121.59688 37.55ZM116.03438 32.378124Q116.03438 34.3625 116.87813 35.346874Q117.72188 36.33125 118.8625 36.33125Q120.01875 36.33125 120.81563 35.39375Q121.62813 34.45625 121.62813 32.51875Q121.62813 30.39375 120.8 29.39375Q119.9875 28.39375 118.78438 28.39375Q117.6125 28.39375 116.81563 29.3625Q116.03438 30.315624 116.03438 32.378124ZM131.45625 32.95625L133.2375 32.8Q133.3625 33.8625 133.81563 34.55Q134.28438 35.2375 135.25313 35.675Q136.2375 36.096874 137.47188 36.096874Q138.55 36.096874 139.37813 35.784374Q140.20625 35.45625 140.6125 34.89375Q141.01875 34.33125 141.01875 33.659374Q141.01875 32.9875 140.62813 32.4875Q140.2375 31.9875 139.34688 31.64375Q138.76875 31.409374 136.78438 30.940624Q134.81563 30.471874 134.03438 30.05Q133.00313 29.51875 132.50313 28.721874Q132.00313 27.925 132.00313 26.940624Q132.00313 25.846874 132.6125 24.909374Q133.22188 23.971874 134.40938 23.4875Q135.59688 22.9875 137.03438 22.9875Q138.62813 22.9875 139.84688 23.503124Q141.06563 24.01875 141.70625 25.01875Q142.3625 26.003124 142.40938 27.26875L140.59688 27.409374Q140.45625 26.05 139.6125 25.3625Q138.76875 24.659374 137.1125 24.659374Q135.39375 24.659374 134.59688 25.3Q133.81563 25.925 133.81563 26.8Q133.81563 27.58125 134.37813 28.08125Q134.925 28.58125 137.2375 29.096874Q139.55 29.6125 140.40938 30.003124Q141.65938 30.58125 142.25313 31.471874Q142.84688 32.346874 142.84688 33.503124Q142.84688 34.64375 142.19063 35.659374Q141.53438 36.675 140.3 37.2375Q139.08125 37.8 137.55 37.8Q135.6125 37.8 134.3 37.2375Q132.9875 36.659374 132.2375 35.51875Q131.4875 34.378124 131.45625 32.95625ZM144.22188 32.3625Q144.22188 29.4875 145.81563 28.096874Q147.15938 26.940624 149.08125 26.940624Q151.22188 26.940624 152.56563 28.346874Q153.925 29.753124 153.925 32.221874Q153.925 34.221874 153.33125 35.378124Q152.7375 36.51875 151.58125 37.159374Q150.44063 37.784374 149.08125 37.784374Q146.89375 37.784374 145.55 36.39375Q144.22188 34.9875 144.22188 32.3625ZM146.01875 32.3625Q146.01875 34.3625 146.87813 35.346874Q147.75313 36.33125 149.08125 36.33125Q150.39375 36.33125 151.25313 35.346874Q152.12813 34.346874 152.12813 32.3Q152.12813 30.378124 151.25313 29.39375Q150.37813 28.39375 149.08125 28.39375Q147.75313 28.39375 146.87813 29.39375Q146.01875 30.378124 146.01875 32.3625ZM155.83125 37.55L155.83125 23.2375L157.58125 23.2375L157.58125 37.55L155.83125 37.55ZM166.65938 37.55L166.65938 36.01875Q165.45625 37.784374 163.37813 37.784374Q162.45625 37.784374 161.65938 37.440624Q160.8625 37.08125 160.47188 36.55Q160.09688 36.01875 159.94063 35.2375Q159.83125 34.721874 159.83125 33.596874L159.83125 27.175L161.58125 27.175L161.58125 32.925Q161.58125 34.3 161.69063 34.784374Q161.8625 35.471874 162.39375 35.878124Q162.94063 36.26875 163.72188 36.26875Q164.51875 36.26875 165.20625 35.8625Q165.90938 35.45625 166.19063 34.76875Q166.4875 34.065624 166.4875 32.7375L166.4875 27.175L168.2375 27.175L168.2375 37.55L166.65938 37.55ZM173.70625 35.971874L173.95625 37.534374Q173.22188 37.690624 172.62813 37.690624Q171.675 37.690624 171.14375 37.39375Q170.62813 37.08125 170.40938 36.596874Q170.19063 36.096874 170.19063 34.51875L170.19063 28.55L168.90938 28.55L168.90938 27.175L170.19063 27.175L170.19063 24.6125L171.94063 23.55L171.94063 27.175L173.70625 27.175L173.70625 28.55L171.94063 28.55L171.94063 34.6125Q171.94063 35.3625 172.03438 35.58125Q172.12813 35.784374 172.33125 35.925Q172.55 36.05 172.94063 36.05Q173.22188 36.05 173.70625 35.971874ZM175.87813 25.253124L175.87813 23.2375L177.64375 23.2375L177.64375 25.253124L175.87813 25.253124ZM175.87813 37.55L175.87813 27.175L177.64375 27.175L177.64375 37.55L175.87813 37.55ZM179.22188 32.3625Q179.22188 29.4875 180.81563 28.096874Q182.15938 26.940624 184.08125 26.940624Q186.22188 26.940624 187.56563 28.346874Q188.925 29.753124 188.925 32.221874Q188.925 34.221874 188.33125 35.378124Q187.7375 36.51875 186.58125 37.159374Q185.44063 37.784374 184.08125 37.784374Q181.89375 37.784374 180.55 36.39375Q179.22188 34.9875 179.22188 32.3625ZM181.01875 32.3625Q181.01875 34.3625 181.87813 35.346874Q182.75313 36.33125 184.08125 36.33125Q185.39375 36.33125 186.25313 35.346874Q187.12813 34.346874 187.12813 32.3Q187.12813 30.378124 186.25313 29.39375Q185.37813 28.39375 184.08125 28.39375Q182.75313 28.39375 181.87813 29.39375Q181.01875 30.378124 181.01875 32.3625ZM190.8625 37.55L190.8625 27.175L192.45625 27.175L192.45625 28.659374Q193.59688 26.940624 195.75313 26.940624Q196.69063 26.940624 197.47188 27.284374Q198.26875 27.6125 198.65938 28.159374Q199.05 28.70625 199.20625 29.45625Q199.3 29.95625 199.3 31.175L199.3 37.55L197.53438 37.55L197.53438 31.2375Q197.53438 30.159374 197.33125 29.628124Q197.12813 29.096874 196.59688 28.784374Q196.08125 28.471874 195.37813 28.471874Q194.25313 28.471874 193.44063 29.190624Q192.62813 29.89375 192.62813 31.878124L192.62813 37.55L190.8625 37.55ZM213.64375 36.26875Q212.65938 37.096874 211.75313 37.440624Q210.84688 37.784374 209.81563 37.784374Q208.1125 37.784374 207.19063 36.95625Q206.26875 36.1125 206.26875 34.815624Q206.26875 34.05 206.6125 33.425Q206.97188 32.8 207.53438 32.425Q208.09688 32.034374 208.8 31.83125Q209.31563 31.70625 210.3625 31.565624Q212.4875 31.315624 213.4875 30.971874Q213.50313 30.6125 213.50313 30.503124Q213.50313 29.440624 213.00313 28.9875Q212.33125 28.39375 211.00313 28.39375Q209.75313 28.39375 209.15938 28.83125Q208.58125 29.26875 208.3 30.378124L206.58125 30.14375Q206.81563 29.034374 207.34688 28.3625Q207.87813 27.675 208.89375 27.315624Q209.90938 26.940624 211.25313 26.940624Q212.58125 26.940624 213.40938 27.253124Q214.2375 27.565624 214.62813 28.05Q215.01875 28.51875 215.175 29.2375Q215.26875 29.690624 215.26875 30.8625L215.26875 33.20625Q215.26875 35.659374 215.37813 36.315624Q215.4875 36.95625 215.83125 37.55L213.9875 37.55Q213.72188 37.003124 213.64375 36.26875ZM213.4875 32.346874Q212.53438 32.7375 210.6125 33.003124Q209.53438 33.159374 209.08125 33.3625Q208.64375 33.55 208.39375 33.925Q208.14375 34.3 208.14375 34.76875Q208.14375 35.471874 208.675 35.940624Q209.20625 36.409374 210.2375 36.409374Q211.25313 36.409374 212.03438 35.971874Q212.83125 35.51875 213.20625 34.753124Q213.4875 34.14375 213.4875 32.9875L213.4875 32.346874ZM217.8625 37.55L217.8625 27.175L219.45625 27.175L219.45625 28.659374Q220.59688 26.940624 222.75313 26.940624Q223.69063 26.940624 224.47188 27.284374Q225.26875 27.6125 225.65938 28.159374Q226.05 28.70625 226.20625 29.45625Q226.3 29.95625 226.3 31.175L226.3 37.55L224.53438 37.55L224.53438 31.2375Q224.53438 30.159374 224.33125 29.628124Q224.12813 29.096874 223.59688 28.784374Q223.08125 28.471874 222.37813 28.471874Q221.25313 28.471874 220.44063 29.190624Q219.62813 29.89375 219.62813 31.878124L219.62813 37.55L217.8625 37.55ZM234.59688 37.55L234.59688 36.2375Q233.6125 37.784374 231.69063 37.784374Q230.45625 37.784374 229.40938 37.096874Q228.37813 36.409374 227.8 35.190624Q227.2375 33.971874 227.2375 32.378124Q227.2375 30.815624 227.75313 29.55Q228.26875 28.284374 229.3 27.6125Q230.34688 26.940624 231.6125 26.940624Q232.55 26.940624 233.28438 27.346874Q234.01875 27.7375 234.4875 28.3625L234.4875 23.2375L236.22188 23.2375L236.22188 37.55L234.59688 37.55ZM229.03438 32.378124Q229.03438 34.3625 229.87813 35.346874Q230.72188 36.33125 231.8625 36.33125Q233.01875 36.33125 233.81563 35.39375Q234.62813 34.45625 234.62813 32.51875Q234.62813 30.39375 233.8 29.39375Q232.9875 28.39375 231.78438 28.39375Q230.6125 28.39375 229.81563 29.3625Q229.03438 30.315624 229.03438 32.378124ZM243.51875 37.55L249.01875 23.2375L251.06563 23.2375L256.925 37.55L254.76875 37.55L253.09688 33.20625L247.1125 33.20625L245.53438 37.55L243.51875 37.55ZM247.65938 31.675L252.50313 31.675L251.01875 27.70625Q250.33125 25.89375 250.00313 24.7375Q249.72188 26.1125 249.22188 27.471874L247.65938 31.675ZM257.84686 37.55L257.84686 27.175L259.425 27.175L259.425 28.753124Q260.03436 27.64375 260.55 27.3Q261.0656 26.940624 261.675 26.940624Q262.5656 26.940624 263.4875 27.503124L262.8781 29.14375Q262.2375 28.753124 261.59686 28.753124Q261.01874 28.753124 260.55 29.1125Q260.09686 29.45625 259.89374 30.065624Q259.6125 31.003124 259.6125 32.1125L259.6125 37.55L257.84686 37.55ZM264.8781 25.253124L264.8781 23.2375L266.64374 23.2375L266.64374 25.253124L264.8781 25.253124ZM264.8781 37.55L264.8781 27.175L266.64374 27.175L266.64374 37.55L264.8781 37.55ZM272.70624 35.971874L272.95624 37.534374Q272.22186 37.690624 271.6281 37.690624Q270.675 37.690624 270.14374 37.39375Q269.6281 37.08125 269.40936 36.596874Q269.1906 36.096874 269.1906 34.51875L269.1906 28.55L267.90936 28.55L267.90936 27.175L269.1906 27.175L269.1906 24.6125L270.9406 23.55L270.9406 27.175L272.70624 27.175L272.70624 28.55L270.9406 28.55L270.9406 34.6125Q270.9406 35.3625 271.03436 35.58125Q271.1281 35.784374 271.33124 35.925Q271.55 36.05 271.9406 36.05Q272.22186 36.05 272.70624 35.971874ZM274.8625 37.55L274.8625 23.2375L276.6281 23.2375L276.6281 28.3625Q277.8625 26.940624 279.7375 26.940624Q280.8781 26.940624 281.72186 27.39375Q282.58124 27.846874 282.9406 28.659374Q283.3156 29.45625 283.3156 30.971874L283.3156 37.55L281.5656 37.55L281.5656 30.971874Q281.5656 29.659374 280.9875 29.065624Q280.40936 28.45625 279.3781 28.45625Q278.59686 28.45625 277.89374 28.8625Q277.20624 29.26875 276.90936 29.971874Q276.6281 30.659374 276.6281 31.878124L276.6281 37.55L274.8625 37.55ZM284.8625 37.55L284.8625 27.175L286.4406 27.175L286.4406 28.628124Q286.925 27.878124 287.7375 27.409374Q288.55 26.940624 289.58124 26.940624Q290.7375 26.940624 291.47186 27.425Q292.20624 27.89375 292.51874 28.753124Q293.7531 26.940624 295.72186 26.940624Q297.26874 26.940624 298.09686 27.8Q298.925 28.659374 298.925 30.425L298.925 37.55L297.175 37.55L297.175 31.01875Q297.175 29.95625 297.0031 29.503124Q296.83124 29.034374 296.3781 28.753124Q295.9406 28.471874 295.33124 28.471874Q294.2375 28.471874 293.5031 29.20625Q292.78436 29.925 292.78436 31.51875L292.78436 37.55L291.03436 37.55L291.03436 30.815624Q291.03436 29.64375 290.59686 29.065624Q290.175 28.471874 289.1906 28.471874Q288.45624 28.471874 287.8156 28.8625Q287.1906 29.253124 286.90936 30.003124Q286.6281 30.753124 286.6281 32.175L286.6281 37.55L284.8625 37.55ZM307.97186 34.20625L309.78436 34.440624Q309.3625 36.01875 308.1906 36.909374Q307.03436 37.784374 305.22186 37.784374Q302.95624 37.784374 301.6125 36.39375Q300.28436 34.9875 300.28436 32.45625Q300.28436 29.83125 301.6281 28.39375Q302.97186 26.940624 305.1281 26.940624Q307.20624 26.940624 308.51874 28.3625Q309.84686 29.76875 309.84686 32.346874Q309.84686 32.503124 309.83124 32.815624L302.09686 32.815624Q302.1906 34.51875 303.0656 35.425Q303.9406 36.33125 305.2375 36.33125Q306.20624 36.33125 306.8781 35.83125Q307.5656 35.315624 307.97186 34.20625ZM302.1906 31.3625L307.9875 31.3625Q307.8781 30.065624 307.33124 29.409374Q306.4875 28.39375 305.14374 28.39375Q303.9406 28.39375 303.1125 29.20625Q302.28436 30.003124 302.1906 31.3625ZM315.70624 35.971874L315.95624 37.534374Q315.22186 37.690624 314.6281 37.690624Q313.675 37.690624 313.14374 37.39375Q312.6281 37.08125 312.40936 36.596874Q312.1906 36.096874 312.1906 34.51875L312.1906 28.55L310.90936 28.55L310.90936 27.175L312.1906 27.175L312.1906 24.6125L313.9406 23.55L313.9406 27.175L315.70624 27.175L315.70624 28.55L313.9406 28.55L313.9406 34.6125Q313.9406 35.3625 314.03436 35.58125Q314.1281 35.784374 314.33124 35.925Q314.55 36.05 314.9406 36.05Q315.22186 36.05 315.70624 35.971874ZM317.8781 25.253124L317.8781 23.2375L319.64374 23.2375L319.64374 25.253124L317.8781 25.253124ZM317.8781 37.55L317.8781 27.175L319.64374 27.175L319.64374 37.55L317.8781 37.55ZM328.64374 33.753124L330.3625 33.971874Q330.08124 35.76875 328.90936 36.784374Q327.7531 37.784374 326.05 37.784374Q323.925 37.784374 322.6281 36.39375Q321.33124 35.003124 321.33124 32.409374Q321.33124 30.721874 321.8781 29.471874Q322.4406 28.20625 323.58124 27.58125Q324.72186 26.940624 326.0656 26.940624Q327.7531 26.940624 328.8156 27.8Q329.89374 28.659374 330.20624 30.221874L328.4875 30.4875Q328.2531 29.440624 327.6281 28.925Q327.0031 28.39375 326.1281 28.39375Q324.8 28.39375 323.97186 29.346874Q323.14374 30.3 323.14374 32.346874Q323.14374 34.440624 323.9406 35.39375Q324.7375 36.33125 326.03436 36.33125Q327.0656 36.33125 327.7531 35.70625Q328.45624 35.065624 328.64374 33.753124ZM337.45624 32.95625L339.2375 32.8Q339.3625 33.8625 339.8156 34.55Q340.28436 35.2375 341.2531 35.675Q342.2375 36.096874 343.47186 36.096874Q344.55 36.096874 345.3781 35.784374Q346.20624 35.45625 346.6125 34.89375Q347.01874 34.33125 347.01874 33.659374Q347.01874 32.9875 346.6281 32.4875Q346.2375 31.9875 345.34686 31.64375Q344.76874 31.409374 342.78436 30.940624Q340.8156 30.471874 340.03436 30.05Q339.0031 29.51875 338.5031 28.721874Q338.0031 27.925 338.0031 26.940624Q338.0031 25.846874 338.6125 24.909374Q339.22186 23.971874 340.40936 23.4875Q341.59686 22.9875 343.03436 22.9875Q344.6281 22.9875 345.84686 23.503124Q347.0656 24.01875 347.70624 25.01875Q348.3625 26.003124 348.40936 27.26875L346.59686 27.409374Q346.45624 26.05 345.6125 25.3625Q344.76874 24.659374 343.1125 24.659374Q341.39374 24.659374 340.59686 25.3Q339.8156 25.925 339.8156 26.8Q339.8156 27.58125 340.3781 28.08125Q340.925 28.58125 343.2375 29.096874Q345.55 29.6125 346.40936 30.003124Q347.65936 30.58125 348.2531 31.471874Q348.84686 32.346874 348.84686 33.503124Q348.84686 34.64375 348.1906 35.659374Q347.53436 36.675 346.3 37.2375Q345.08124 37.8 343.55 37.8Q341.6125 37.8 340.3 37.2375Q338.9875 36.659374 338.2375 35.51875Q337.4875 34.378124 337.45624 32.95625ZM350.22186 32.3625Q350.22186 29.4875 351.8156 28.096874Q353.15936 26.940624 355.08124 26.940624Q357.22186 26.940624 358.5656 28.346874Q359.925 29.753124 359.925 32.221874Q359.925 34.221874 359.33124 35.378124Q358.7375 36.51875 357.58124 37.159374Q356.4406 37.784374 355.08124 37.784374Q352.89374 37.784374 351.55 36.39375Q350.22186 34.9875 350.22186 32.3625ZM352.01874 32.3625Q352.01874 34.3625 352.8781 35.346874Q353.7531 36.33125 355.08124 36.33125Q356.39374 36.33125 357.2531 35.346874Q358.1281 34.346874 358.1281 32.3Q358.1281 30.378124 357.2531 29.39375Q356.3781 28.39375 355.08124 28.39375Q353.7531 28.39375 352.8781 29.39375Q352.01874 30.378124 352.01874 32.3625ZM361.83124 37.55L361.83124 23.2375L363.58124 23.2375L363.58124 37.55L361.83124 37.55ZM372.65936 37.55L372.65936 36.01875Q371.45624 37.784374 369.3781 37.784374Q368.45624 37.784374 367.65936 37.440624Q366.8625 37.08125 366.47186 36.55Q366.09686 36.01875 365.9406 35.2375Q365.83124 34.721874 365.83124 33.596874L365.83124 27.175L367.58124 27.175L367.58124 32.925Q367.58124 34.3 367.6906 34.784374Q367.8625 35.471874 368.39374 35.878124Q368.9406 36.26875 369.72186 36.26875Q370.51874 36.26875 371.20624 35.8625Q371.90936 35.45625 372.1906 34.76875Q372.4875 34.065624 372.4875 32.7375L372.4875 27.175L374.2375 27.175L374.2375 37.55L372.65936 37.55ZM379.70624 35.971874L379.95624 37.534374Q379.22186 37.690624 378.6281 37.690624Q377.675 37.690624 377.14374 37.39375Q376.6281 37.08125 376.40936 36.596874Q376.1906 36.096874 376.1906 34.51875L376.1906 28.55L374.90936 28.55L374.90936 27.175L376.1906 27.175L376.1906 24.6125L377.9406 23.55L377.9406 27.175L379.70624 27.175L379.70624 28.55L377.9406 28.55L377.9406 34.6125Q377.9406 35.3625 378.03436 35.58125Q378.1281 35.784374 378.33124 35.925Q378.55 36.05 378.9406 36.05Q379.22186 36.05 379.70624 35.971874ZM381.8781 25.253124L381.8781 23.2375L383.64374 23.2375L383.64374 25.253124L381.8781 25.253124ZM381.8781 37.55L381.8781 27.175L383.64374 27.175L383.64374 37.55L381.8781 37.55ZM385.22186 32.3625Q385.22186 29.4875 386.8156 28.096874Q388.15936 26.940624 390.08124 26.940624Q392.22186 26.940624 393.5656 28.346874Q394.925 29.753124 394.925 32.221874Q394.925 34.221874 394.33124 35.378124Q393.7375 36.51875 392.58124 37.159374Q391.4406 37.784374 390.08124 37.784374Q387.89374 37.784374 386.55 36.39375Q385.22186 34.9875 385.22186 32.3625ZM387.01874 32.3625Q387.01874 34.3625 387.8781 35.346874Q388.7531 36.33125 390.08124 36.33125Q391.39374 36.33125 392.2531 35.346874Q393.1281 34.346874 393.1281 32.3Q393.1281 30.378124 392.2531 29.39375Q391.3781 28.39375 390.08124 28.39375Q388.7531 28.39375 387.8781 29.39375Q387.01874 30.378124 387.01874 32.3625ZM396.8625 37.55L396.8625 27.175L398.45624 27.175L398.45624 28.659374Q399.59686 26.940624 401.7531 26.940624Q402.6906 26.940624 403.47186 27.284374Q404.26874 27.6125 404.65936 28.159374Q405.05 28.70625 405.20624 29.45625Q405.3 29.95625 405.3 31.175L405.3 37.55L403.53436 37.55L403.53436 31.2375Q403.53436 30.159374 403.33124 29.628124Q403.1281 29.096874 402.59686 28.784374Q402.08124 28.471874 401.3781 28.471874Q400.2531 28.471874 399.4406 29.190624Q398.6281 29.89375 398.6281 31.878124L398.6281 37.55L396.8625 37.55Z" fill-rule="nonzero"/></svg>